<svg width="116" height="32" viewBox="0 0 116 32" fill="none" xmlns="http://www.w3.org/2000/svg">
<path d="M8.19995 22.6957V9.30435C8.19995 8.56522 8.50199 8.19565 9.10605 8.19565H10.2787C10.8827 8.19565 11.1848 8.56522 11.1848 9.30435V14.1739H13.7432V9.30435C13.7432 8.56522 14.0452 8.19565 14.6493 8.19565H15.8041C16.4082 8.19565 16.7102 8.56522 16.7102 9.30435V22.6957C16.7102 23.4348 16.4082 23.8043 15.8041 23.8043H14.6493C14.0452 23.8043 13.7432 23.4348 13.7432 22.6957V17.3913H11.1848V22.6957C11.1848 23.4348 10.8827 23.8043 10.2787 23.8043H9.10605C8.50199 23.8043 8.19995 23.4348 8.19995 22.6957Z" fill="#6366F1"/>
<path d="M27.1233 16.0217C27.1233 21.3406 25.6191 24 22.6106 24C19.6021 24 18.0978 21.3406 18.0978 16.0217C18.0978 13.4275 18.4354 11.442 19.1105 10.0652C19.7975 8.68841 20.9642 8 22.6106 8C24.257 8 25.4177 8.68841 26.0929 10.0652C26.7798 11.442 27.1233 13.4275 27.1233 16.0217ZM21.4735 19.9348C21.6986 20.6594 22.0776 21.0217 22.6106 21.0217C23.1436 21.0217 23.5226 20.6594 23.7476 19.9348C23.9727 19.2101 24.0852 17.9058 24.0852 16.0217C24.0852 14.1812 23.9727 12.8841 23.7476 12.1304C23.5344 11.3768 23.1554 11 22.6106 11C22.0657 11 21.6808 11.3768 21.4557 12.1304C21.2425 12.8841 21.1359 14.1812 21.1359 16.0217C21.1359 17.9058 21.2485 19.2101 21.4735 19.9348Z" fill="#6366F1"/>
<path d="M28.5172 22.6957V9.30435C28.5172 8.56522 28.8192 8.19565 29.4233 8.19565H31.3954C32.0113 8.19565 32.3785 8.55073 32.4969 9.26087L33.9183 17.2174H33.9538L35.464 9.26087C35.6061 8.55073 35.9792 8.19565 36.5833 8.19565H38.4488C39.0529 8.19565 39.3549 8.56522 39.3549 9.30435V22.6957C39.3549 23.4348 39.0529 23.8043 38.4488 23.8043H37.6315C37.0275 23.8043 36.7254 23.4348 36.7254 22.6957V14.1087H36.6899L35.1797 22.7174C35.0613 23.442 34.7533 23.8043 34.2558 23.8043H33.6518C33.1661 23.8043 32.8582 23.4493 32.7279 22.7391L31.1822 14.1087H31.1467V22.6957C31.1467 23.4348 30.8446 23.8043 30.2406 23.8043H29.4233C28.8192 23.8043 28.5172 23.4348 28.5172 22.6957Z" fill="#6366F1"/>
<path d="M41.1309 22.6957V9.30435C41.1309 8.56522 41.4329 8.19565 42.037 8.19565H43.2096C43.8136 8.19565 44.1157 8.56522 44.1157 9.30435V22.6957C44.1157 23.4348 43.8136 23.8043 43.2096 23.8043H42.037C41.4329 23.8043 41.1309 23.4348 41.1309 22.6957Z" fill="#6366F1"/>
<path d="M45.8849 22.6957V9.30435C45.8849 8.56522 46.1869 8.19565 46.791 8.19565H52.1388C52.7428 8.19565 53.0449 8.56522 53.0449 9.30435V10.2391C53.0449 10.9783 52.7428 11.3478 52.1388 11.3478H48.8519V14.2609H51.0905C51.6946 14.2609 51.9966 14.6304 51.9966 15.3696V16.2174C51.9966 16.9565 51.6946 17.3261 51.0905 17.3261H48.8519V20.6522H52.2987C52.9027 20.6522 53.2048 21.0217 53.2048 21.7609V22.6957C53.2048 23.4348 52.9027 23.8043 52.2987 23.8043H46.791C46.1869 23.8043 45.8849 23.4348 45.8849 22.6957Z" fill="#6366F1"/>
<path d="M54.1526 20.8261C54.0934 20.6087 54.0579 20.4348 54.046 20.3043C54.046 20.1594 54.0993 20.0145 54.2059 19.8696C54.3244 19.7246 54.5139 19.6232 54.7745 19.5652L55.8405 19.3261C55.9471 19.2971 56.0418 19.2826 56.1247 19.2826C56.2195 19.2826 56.2965 19.2971 56.3557 19.3261C56.4268 19.3551 56.4801 19.3841 56.5156 19.413C56.563 19.4275 56.6044 19.4783 56.64 19.5652C56.6874 19.6377 56.717 19.6957 56.7288 19.7391C56.7525 19.7681 56.7821 19.8406 56.8176 19.9565C56.865 20.0725 56.8946 20.1522 56.9065 20.1957C57.1552 20.7899 57.5579 21.087 58.1146 21.087C58.4581 21.087 58.7365 20.9783 58.9497 20.7609C59.1629 20.5435 59.2695 20.2319 59.2695 19.8261C59.2695 19.3768 59.1392 18.971 58.8786 18.6087C58.6299 18.2464 58.316 17.9493 57.937 17.7174C57.5698 17.471 57.1611 17.1812 56.711 16.8478C56.2728 16.5 55.8642 16.1449 55.4851 15.7826C55.118 15.4203 54.8041 14.9203 54.5435 14.2826C54.2948 13.6449 54.1704 12.913 54.1704 12.087C54.1704 10.8551 54.508 9.86957 55.1831 9.13044C55.8701 8.37681 56.788 8 57.937 8C59.7965 8 61.0284 8.97101 61.6324 10.913C61.7627 11.1594 61.7923 11.413 61.7213 11.6739C61.662 11.9203 61.4488 12.087 61.0817 12.1739L60.1223 12.413C60.0157 12.442 59.9209 12.4565 59.838 12.4565C59.7669 12.4565 59.6959 12.4493 59.6248 12.4348C59.5656 12.4058 59.5123 12.3768 59.4649 12.3478C59.4294 12.3188 59.3879 12.2754 59.3405 12.2174C59.2931 12.1449 59.2576 12.087 59.2339 12.0435C59.2102 12 59.1747 11.9275 59.1273 11.8261C59.0799 11.7246 59.0385 11.6449 59.003 11.587C58.7424 11.1232 58.4048 10.8913 57.9902 10.8913C57.6941 10.8913 57.4573 10.9928 57.2796 11.1957C57.1138 11.3841 57.0308 11.6377 57.0308 11.9565C57.0308 12.4493 57.2026 12.8913 57.5461 13.2826C57.9014 13.6739 58.3278 14.029 58.8253 14.3478C59.3228 14.6667 59.8202 15.0217 60.3177 15.413C60.8152 15.8043 61.2356 16.3551 61.5791 17.0652C61.9345 17.7609 62.1121 18.5942 62.1121 19.5652C62.1121 20.9565 61.739 22.0435 60.9928 22.8261C60.2585 23.6087 59.2576 24 57.9902 24C56.9361 24 56.1011 23.7464 55.4851 23.2391C54.8692 22.7174 54.4251 21.913 54.1526 20.8261Z" fill="#6366F1"/>
<path d="M67.0349 22.6957V9.30435C67.0349 8.56522 67.3369 8.19565 67.941 8.19565H70.837C72.3294 8.19565 73.4428 8.60145 74.1771 9.41304C74.9233 10.2101 75.2964 11.4565 75.2964 13.1522C75.2964 14.7899 74.9115 16.0435 74.1416 16.913C73.3836 17.7826 72.3057 18.2174 70.9081 18.2174H70.002V22.6957C70.002 23.4348 69.6999 23.8043 69.0958 23.8043H67.941C67.3369 23.8043 67.0349 23.4348 67.0349 22.6957ZM70.002 15.1522H70.9969C71.3641 15.1522 71.6602 14.9928 71.8852 14.6739C72.1221 14.3551 72.2406 13.8478 72.2406 13.1522C72.2406 11.9493 71.8201 11.3478 70.9791 11.3478H70.002V15.1522Z" fill="#6366F1"/>
<path d="M76.5429 22.6957V9.30435C76.5429 8.56522 76.8449 8.19565 77.449 8.19565H78.6216C79.2257 8.19565 79.5277 8.56522 79.5277 9.30435V22.6957C79.5277 23.4348 79.2257 23.8043 78.6216 23.8043H77.449C76.8449 23.8043 76.5429 23.4348 76.5429 22.6957Z" fill="#6366F1"/>
<path d="M80.7106 22.6957V21.3043C80.7106 20.8406 80.8586 20.2971 81.1547 19.6739L85.1167 11.3478H81.9365C81.3324 11.3478 81.0304 10.9783 81.0304 10.2391V9.30435C81.0304 8.56522 81.3324 8.19565 81.9365 8.19565H87.8173C88.4213 8.19565 88.7234 8.56522 88.7234 9.30435V10.587C88.7234 11.0362 88.5694 11.5797 88.2614 12.2174L84.1751 20.6522H87.8528C88.4569 20.6522 88.7589 21.0217 88.7589 21.7609V22.6957C88.7589 23.4348 88.4569 23.8043 87.8528 23.8043H81.6167C81.0126 23.8043 80.7106 23.4348 80.7106 22.6957Z" fill="#6366F1"/>
<path d="M89.4551 22.6957V21.3043C89.4551 20.8406 89.6032 20.2971 89.8993 19.6739L93.8613 11.3478H90.681C90.077 11.3478 89.7749 10.9783 89.7749 10.2391V9.30435C89.7749 8.56522 90.077 8.19565 90.681 8.19565H96.5618C97.1659 8.19565 97.4679 8.56522 97.4679 9.30435V10.587C97.4679 11.0362 97.314 11.5797 97.006 12.2174L92.9197 20.6522H96.5974C97.2014 20.6522 97.5035 21.0217 97.5035 21.7609V22.6957C97.5035 23.4348 97.2014 23.8043 96.5974 23.8043H90.3612C89.7572 23.8043 89.4551 23.4348 89.4551 22.6957Z" fill="#6366F1"/>
<path d="M98.1286 22.7174L100.474 9.28261C100.592 8.55797 100.959 8.19565 101.575 8.19565H103.636C104.252 8.19565 104.619 8.55073 104.738 9.26087L107.154 22.7391C107.237 23.1739 107.207 23.4638 107.065 23.6087C106.935 23.7391 106.728 23.8043 106.443 23.8043H105.022C104.762 23.8043 104.56 23.7319 104.418 23.587C104.288 23.4275 104.193 23.1377 104.134 22.7174L103.814 20.4348H101.398L101.096 22.7174C101.048 23.1232 100.954 23.4058 100.811 23.5652C100.681 23.7246 100.486 23.8043 100.225 23.8043H98.8393C98.6498 23.8043 98.5017 23.7899 98.3951 23.7609C98.2885 23.7174 98.1997 23.6159 98.1286 23.4565C98.0694 23.2826 98.0694 23.0362 98.1286 22.7174ZM101.806 17.3478H103.388L102.606 11.7391H102.553L101.806 17.3478Z" fill="#6366F1"/>
</svg>
