<svg width="53" height="20" viewBox="0 0 53 20" fill="none" xmlns="http://www.w3.org/2000/svg">
<mask id="mask0_1382_13896" style="mask-type:alpha" maskUnits="userSpaceOnUse" x="4" y="4" width="45" height="12">
<g clip-path="url(#clip0_1382_13896)">
<path d="M30.913 4.27788C30.7165 4.4706 30.56 4.63063 30.3968 4.78257C30.2248 4.94275 30.0559 5.09884 30.1953 5.34906C30.4631 5.4469 30.727 5.53079 30.9801 5.64238C31.073 5.68339 31.1378 5.79349 31.221 5.8646C31.2519 5.89097 31.2981 5.90456 31.3387 5.90865C31.3872 5.91348 31.4402 5.88815 31.4861 5.89937C31.8278 5.9828 32.1681 6.07203 32.5324 6.16549C32.5324 6.20233 32.5324 6.29156 32.5324 6.39714C32.6741 6.37841 32.8057 6.36103 32.937 6.34372C32.9475 6.3646 32.9579 6.38555 32.9682 6.40643C32.8411 6.49662 32.714 6.58682 32.6105 6.66014C32.7523 6.69209 32.8858 6.7224 33.0195 6.75219C33.0415 6.7571 33.0702 6.77069 33.0853 6.76133C33.3056 6.62538 33.5261 6.48927 33.7424 6.3464C33.8595 6.26913 33.9689 6.179 34.0755 6.06868C33.7033 6.12054 33.406 6.43733 33.0244 6.45999C33.0138 6.44164 33.0033 6.42329 32.9928 6.40493C33.0907 6.33458 33.1818 6.24907 33.2875 6.19669C33.6199 6.03205 33.9617 5.88852 34.2922 5.71979C34.492 5.61779 34.6775 5.48435 34.8942 5.3845C34.8642 5.6903 34.6126 5.85114 34.4707 6.08027C34.3192 6.32522 34.1333 6.54617 33.9507 6.79343C34.2945 7.20553 34.6539 7.6363 35.0133 8.06713C34.9998 8.09009 34.9864 8.11304 34.973 8.136C34.717 7.99714 34.4652 7.84841 34.2036 7.72285C34.0111 7.63043 33.8079 7.56037 33.6053 7.49461C33.2736 7.38696 32.9435 7.25145 32.6032 7.20413C32.3842 7.17374 32.1485 7.28021 31.9137 7.32664C32.0131 7.64514 32.0107 7.63905 31.7545 7.75524C31.2544 7.98184 30.7561 8.21268 30.26 8.44849C30.0483 8.54908 29.89 8.69982 29.9374 8.97828C29.5792 9.03401 29.2871 8.88006 29.305 8.71765C28.7531 8.41914 28.1782 8.56238 27.5776 8.56603C27.6647 8.70131 27.738 8.81498 27.8275 8.95406C27.3752 9.03066 26.9622 9.0051 26.6225 8.70837C26.3456 8.46654 26.0194 8.4785 25.7062 8.40533C25.483 8.35324 25.2638 8.28295 25.0406 8.23058C24.9618 8.21209 24.8685 8.24603 24.7963 8.21609C24.3861 8.04626 23.98 7.86461 23.573 7.68585C23.5549 7.6779 23.5412 7.65881 23.525 7.64543C23.2708 7.43473 23.2736 7.29172 23.536 7.0993C23.5328 7.08666 23.5329 7.06578 23.5259 7.06266C23.129 6.88413 23.2476 6.64164 23.5189 6.46363C23.7896 6.28599 24.0383 6.07054 24.2989 5.87507C25.1209 5.25842 26.0404 4.95292 27.0411 4.92194C27.3885 4.91117 27.7407 4.89408 28.0827 4.94304C28.313 4.97596 28.4761 4.92722 28.6797 4.81682C29.0798 4.59995 29.4993 4.43502 29.9601 4.35827C30.2287 4.31362 30.4899 4.22788 30.7675 4.2553C30.7994 4.25849 30.8311 4.2651 30.913 4.27788ZM26.7982 5.41979C26.7208 5.45598 26.6505 5.50709 26.574 5.52151C25.9707 5.63554 25.4142 5.88116 24.8782 6.18808C24.8082 6.22819 24.7274 6.24691 24.6284 6.28429C24.626 6.31066 24.6208 6.36995 24.6146 6.43971C24.6536 6.43265 24.6803 6.43057 24.7055 6.42284C25.8766 6.0666 27.0696 5.89862 28.2789 6.08755C28.9776 6.19669 29.6591 6.42418 30.3541 6.5672C30.6852 6.63533 31.0292 6.64358 31.368 6.65301C31.5104 6.65702 31.6544 6.59394 31.7978 6.56133C31.5102 6.47195 31.2314 6.44089 30.9705 6.35122C30.5311 6.20019 30.1038 6.00924 29.6698 5.83977C28.7921 5.49713 27.8951 5.30984 26.9557 5.46318C26.9049 5.47158 26.8475 5.43435 26.7982 5.41979ZM4 7.78132H4.36677V5.75568H4V5.4478H5.08831V5.75568H4.72552V7.78132H5.08831V8.0892H4V7.78132ZM6.03852 8.00242V7.38652H6.36459V7.76394C6.48698 7.79864 6.67445 7.83332 6.87009 7.83332C7.2125 7.83332 7.45702 7.71186 7.45702 7.43429C7.45702 6.75769 6.07923 7.07433 6.07923 6.12447C6.07923 5.63866 6.44215 5.39572 6.96791 5.39572C7.23289 5.39572 7.52224 5.45642 7.72604 5.53019V6.13747H7.39585V5.75568C7.29 5.72961 7.13102 5.70375 6.98014 5.70375C6.64185 5.70375 6.42582 5.84245 6.42582 6.08979C6.42582 6.72292 7.80348 6.42812 7.80348 7.40822C7.80348 7.93311 7.40409 8.14135 6.89049 8.14135C6.58885 8.14128 6.27088 8.07182 6.03852 8.00242ZM8.74181 7.78132H9.10859V5.75568H8.74181V5.4478H9.88312V5.75568H9.4674V7.78132H10.4293V7.30851H10.7635V8.0892H8.74181V7.78132ZM11.441 7.78132H11.7589L12.5294 5.75568H12.1747V5.4478H13.047L13.9356 7.78132H14.2576V8.0892H13.1937V7.78132H13.5646L13.373 7.27381H12.301L12.1134 7.78132H12.4804V8.0892H11.441V7.78132ZM13.263 6.96586L12.839 5.81645L12.4152 6.96586H13.263ZM14.9922 7.78132H15.359V5.75568H14.9922V5.4478H15.7259L17.067 7.47329V5.75568H16.7042V5.4478H17.7723V5.75568H17.4092V8.0892H17.0873L15.6973 6.003V7.7814H16.06V8.08927H14.9922V7.78132ZM18.6535 7.78132H19.0203V5.75568H18.6535V5.4478H19.803C20.6102 5.4478 21.1196 5.93361 21.1196 6.77061C21.1196 7.60338 20.6102 8.0892 19.803 8.0892H18.6535V7.78132ZM19.803 7.78132C20.4103 7.78132 20.7527 7.40813 20.7527 6.77061C20.7527 6.12864 20.4103 5.75568 19.803 5.75568H19.379V7.78132H19.803ZM37.0984 7.78132H37.4652V5.75568H37.0984V5.4478H38.2233C38.8227 5.4478 39.2139 5.77306 39.2139 6.2848C39.2139 6.79669 38.8227 7.12195 38.2233 7.12195H37.824V7.78132H38.2642V8.0892H37.0984V7.78132ZM37.824 6.81408H38.2316C38.6718 6.81408 38.8512 6.57983 38.8512 6.2848C38.8512 5.98993 38.6718 5.75568 38.2316 5.75568H37.824V6.81408ZM40.0788 6.77061C40.0788 5.97254 40.5965 5.39572 41.3548 5.39572C42.1129 5.39572 42.6306 5.97254 42.6306 6.77061C42.6306 7.56869 42.1129 8.14128 41.3548 8.14128C40.5965 8.14128 40.0788 7.56869 40.0788 6.77061ZM42.2636 6.77061C42.2636 6.12864 41.8888 5.71675 41.3548 5.71675C40.8247 5.71675 40.4497 6.13302 40.4497 6.77061C40.4497 7.4126 40.8207 7.82025 41.3548 7.82025C41.8846 7.82025 42.2636 7.40822 42.2636 6.77061ZM43.512 7.78132H43.8788V5.75568H43.512V5.4478H44.5921V5.75568H44.2375V7.78132H44.6247V8.0892H43.512V7.78132ZM44.4007 6.77938V6.7533L45.3014 5.75137H44.9795V5.44773H46.0229V5.7556H45.7089L44.8328 6.74453L45.6846 7.78132H46.0596V8.0892H45.4645L44.4007 6.77938ZM46.8797 7.78132H47.2467V5.75568H46.8797V5.4478H48.8894V6.18941H48.5592V5.75568H47.6053V6.60583H48.6326V6.9137H47.6053V7.78132H48.5672V7.33459H48.9016V8.0892H46.8797V7.78132ZM47.6134 5.04876L48.2698 4.3547L48.5063 4.67135L47.7276 5.20047L47.6134 5.04876Z" fill="black"/>
<path d="M13.4919 13.4622C13.4919 13.481 13.4899 13.4957 13.4858 13.5059C13.4816 13.5162 13.4721 13.5211 13.457 13.5211C13.4364 13.5211 13.4206 13.5053 13.4097 13.4734C13.3712 13.3691 13.3472 13.3111 13.3377 13.2995C13.3157 13.2749 13.2571 13.255 13.1618 13.2397C13.0664 13.2245 12.968 13.2169 12.8666 13.2169C12.8061 13.2169 12.7567 13.2192 12.7184 13.2236C12.6799 13.228 12.6553 13.2359 12.6444 13.2476C12.6237 13.2682 12.6045 13.3302 12.5867 13.4337C12.5689 13.5374 12.56 13.6198 12.56 13.681V13.8803C12.56 13.8965 12.5634 13.9096 12.5703 13.9197C12.5772 13.9299 12.5874 13.935 12.6011 13.935H12.8501C12.9049 13.935 12.9578 13.9168 13.0085 13.8802C13.0291 13.8657 13.0564 13.8293 13.0908 13.7708C13.1209 13.7198 13.1429 13.6941 13.1566 13.6941C13.1635 13.6941 13.17 13.6983 13.1761 13.7063C13.1822 13.7143 13.1853 13.7242 13.1853 13.7358C13.1853 13.7417 13.184 13.7533 13.1812 13.7708L13.1339 14.248C13.1339 14.2714 13.1326 14.2885 13.1298 14.2995C13.127 14.3104 13.1188 14.3166 13.1052 14.318C13.0846 14.3195 13.0654 14.2874 13.0476 14.2217C13.0297 14.156 13.0085 14.1138 12.9837 14.0948C12.9344 14.0582 12.8741 14.04 12.8027 14.04H12.6258C12.5915 14.04 12.5633 14.0561 12.5414 14.0883C12.5194 14.1205 12.5033 14.1812 12.493 14.2704C12.4828 14.3596 12.4777 14.4576 12.4777 14.5646V14.659C12.4777 14.6793 12.4793 14.6966 12.4828 14.7105C12.4862 14.7244 12.493 14.7387 12.5034 14.7533C12.5137 14.768 12.5263 14.7796 12.5415 14.7883C12.5469 14.7914 12.5634 14.7986 12.5909 14.8104C12.6032 14.8161 12.6221 14.8212 12.6475 14.8256C12.6729 14.83 12.6907 14.8344 12.701 14.8388C12.7112 14.8433 12.7185 14.8469 12.7226 14.8498C12.7336 14.8586 12.7391 14.8712 12.7391 14.8871C12.7391 14.9092 12.7288 14.9241 12.7082 14.9322C12.6876 14.9403 12.6582 14.9442 12.6197 14.9442C12.5991 14.9442 12.5611 14.9414 12.5055 14.9354C12.45 14.9296 12.4106 14.9267 12.3873 14.9267C12.3585 14.9267 12.3067 14.9281 12.232 14.931C12.1571 14.9339 12.1178 14.9354 12.1137 14.9354C12.0382 14.9354 11.9957 14.9282 11.9861 14.9135C11.982 14.9063 11.98 14.8989 11.98 14.8916C11.98 14.877 11.9882 14.8642 12.0046 14.8533C12.0211 14.8423 12.0441 14.832 12.0735 14.8225C12.1031 14.8132 12.1274 14.7842 12.1466 14.7361C12.1616 14.6982 12.1712 14.6565 12.1753 14.6113L12.3091 13.3678C12.3105 13.359 12.3111 13.3475 12.3111 13.3328C12.3111 13.2993 12.3022 13.2723 12.2844 13.2518C12.2665 13.2314 12.2322 13.2131 12.1815 13.1971C12.1568 13.1897 12.1321 13.1825 12.1075 13.1751C12.0868 13.1663 12.0765 13.1562 12.0765 13.1445C12.0765 13.1269 12.0899 13.1161 12.1167 13.1117C12.1434 13.1073 12.1719 13.105 12.2021 13.105C12.2378 13.105 12.2906 13.107 12.3605 13.1105C12.4304 13.1141 12.471 13.116 12.4819 13.116H13.1567C13.202 13.116 13.2462 13.1149 13.2895 13.1124C13.3327 13.1099 13.3749 13.1074 13.416 13.1049C13.4502 13.1049 13.4715 13.1064 13.4798 13.1093C13.488 13.1124 13.4921 13.1219 13.4921 13.1379V13.4622H13.4919Z" fill="black"/>
<path d="M14.4751 13.9219L14.4339 14.0773C14.4285 14.1007 14.4175 14.1123 14.4011 14.1123C14.3941 14.1123 14.3873 14.11 14.3805 14.1057C14.3735 14.1013 14.3674 14.0956 14.362 14.0881C14.3154 14.0284 14.2907 13.997 14.2879 13.9941C14.2715 13.9779 14.2571 13.97 14.2447 13.97C14.2049 13.97 14.1672 14.0153 14.1316 14.1057C14.1028 14.1787 14.0802 14.2678 14.0637 14.3728L13.9824 14.8938C13.9824 14.9044 13.9793 14.9145 13.9732 14.9239C13.967 14.933 13.9605 14.9377 13.9537 14.9377H13.7405C13.735 14.9377 13.7309 14.937 13.7281 14.9354C13.724 14.9311 13.7213 14.9282 13.7199 14.9267C13.7185 14.9239 13.7179 14.9187 13.7179 14.9113C13.7179 14.9025 13.7179 14.8968 13.7179 14.8938L13.8063 14.2961C13.8104 14.2698 13.8125 14.2422 13.8125 14.2129C13.8125 14.1648 13.8067 14.1243 13.795 14.0915C13.7833 14.0586 13.7638 14.04 13.7363 14.0356C13.7048 14.0299 13.6726 14.0655 13.6396 14.1429C13.6245 14.1779 13.6094 14.1918 13.5943 14.1845C13.5737 14.1743 13.5635 14.1553 13.5635 14.1275C13.5635 14.1071 13.5682 14.0841 13.5777 14.0586C13.5873 14.0331 13.5975 14.0094 13.6083 13.9874C13.6396 13.9277 13.6783 13.8802 13.7244 13.8451C13.7706 13.8101 13.8188 13.7926 13.8691 13.7926C13.9031 13.7926 13.9295 13.8109 13.9485 13.8474C13.9622 13.8736 13.9737 13.9108 13.9832 13.9589L14.008 14.0948L14.0558 14.0161C14.0807 13.9736 14.1202 13.9299 14.1741 13.8846C14.2487 13.8233 14.32 13.7926 14.3878 13.7926C14.4223 13.7926 14.4465 13.8007 14.4604 13.8168C14.4742 13.8328 14.4811 13.8531 14.4811 13.8781C14.4813 13.8941 14.4792 13.9088 14.4751 13.9219Z" fill="black"/>
<path d="M15.4966 14.0205C15.4966 14.0846 15.4637 14.1474 15.3979 14.2087C15.3402 14.2627 15.2697 14.3044 15.1859 14.3335C15.0323 14.386 14.9198 14.4122 14.8485 14.4122L14.8444 14.4754C14.8444 14.577 14.8718 14.6539 14.9267 14.706C14.9815 14.7583 15.0508 14.7844 15.1345 14.7844C15.1906 14.7844 15.2431 14.7733 15.2918 14.7509C15.3406 14.7286 15.3834 14.6953 15.4204 14.6506C15.4369 14.6305 15.4534 14.6261 15.4698 14.6377C15.4794 14.6435 15.4842 14.6536 15.4842 14.6681C15.4842 14.674 15.4821 14.6804 15.4781 14.6877C15.4382 14.7573 15.3707 14.8175 15.2753 14.8681C15.18 14.9189 15.0899 14.9442 15.0049 14.9442C14.8621 14.9442 14.7544 14.9096 14.6817 14.8405C14.6091 14.7712 14.5728 14.6747 14.5728 14.5509C14.5728 14.4679 14.5836 14.3891 14.6056 14.3149C14.6331 14.2232 14.6748 14.1416 14.7312 14.0702C14.7929 13.9901 14.8662 13.9273 14.9513 13.8822C15.0431 13.8328 15.1433 13.808 15.2517 13.808C15.3367 13.808 15.4005 13.8307 15.4429 13.8758C15.4788 13.914 15.4966 13.9621 15.4966 14.0205ZM15.2537 14.0226C15.2537 13.9891 15.2462 13.9621 15.2312 13.9415C15.212 13.9153 15.1853 13.9021 15.1509 13.9021C15.1153 13.9021 15.0792 13.9128 15.0429 13.9341C15.0066 13.9554 14.9771 13.9847 14.9544 14.0222C14.9318 14.0595 14.9109 14.1061 14.8916 14.1619C14.8642 14.2456 14.8525 14.3013 14.8566 14.3291C14.8608 14.3291 14.8697 14.3291 14.8834 14.3291C14.9246 14.3291 14.9713 14.3189 15.0233 14.2985C15.0905 14.2723 15.1454 14.2357 15.1879 14.1891C15.2085 14.1672 15.2246 14.1415 15.2363 14.1124C15.248 14.0833 15.2537 14.0532 15.2537 14.0226Z" fill="black"/>
<path d="M16.4302 13.9196C16.4371 13.9343 16.4404 13.9497 16.4404 13.9657C16.4404 13.995 16.4312 14.0209 16.4126 14.0433C16.3941 14.066 16.3705 14.0774 16.3418 14.0774C16.3197 14.0774 16.2964 14.0686 16.2717 14.0511C16.258 14.0409 16.2402 14.0121 16.2182 13.9646C16.1962 13.9172 16.174 13.8889 16.1513 13.8794C16.1287 13.8698 16.1078 13.8651 16.0886 13.8651C16.0557 13.8651 16.0286 13.875 16.0073 13.8946C15.986 13.9143 15.9755 13.9461 15.9755 13.9901C15.9755 14.0048 15.9768 14.0198 15.9796 14.035C15.9822 14.0504 15.9905 14.0662 16.0042 14.0822C16.0138 14.094 16.031 14.1092 16.0556 14.1282L16.2306 14.273C16.2525 14.2907 16.2713 14.3075 16.2871 14.3235C16.3028 14.3397 16.3169 14.3587 16.3292 14.3805C16.3499 14.4155 16.366 14.4527 16.3776 14.4913C16.3892 14.5301 16.3952 14.567 16.3952 14.6021C16.3952 14.6461 16.3872 14.6869 16.3715 14.725C16.3558 14.763 16.3308 14.798 16.2964 14.8302C16.2498 14.8756 16.2015 14.9071 16.1513 14.9245C16.1013 14.942 16.0413 14.951 15.9713 14.951C15.8808 14.951 15.8033 14.9333 15.7388 14.8983C15.6606 14.856 15.6216 14.7956 15.6216 14.7166C15.6242 14.6787 15.6365 14.6502 15.6585 14.6314C15.6805 14.6123 15.7059 14.6028 15.7346 14.6028C15.7703 14.6028 15.7957 14.6146 15.8108 14.6378C15.819 14.651 15.8334 14.6875 15.854 14.7474C15.8842 14.8349 15.9288 14.8787 15.9878 14.8787C16.0468 14.8787 16.0931 14.8621 16.1267 14.8292C16.1602 14.7963 16.1771 14.7557 16.1771 14.7076C16.1771 14.6739 16.1682 14.6391 16.1503 14.6033C16.1324 14.5675 16.1064 14.535 16.0722 14.5057L15.8746 14.3323C15.7979 14.2652 15.7594 14.189 15.7594 14.1042C15.7594 14.037 15.7834 13.9752 15.8314 13.9188C15.8794 13.8625 15.9411 13.8248 16.0166 13.8058C16.0631 13.7942 16.1078 13.7883 16.1502 13.7883C16.2147 13.7883 16.2723 13.7997 16.323 13.8221C16.3739 13.8449 16.4096 13.8774 16.4302 13.9196Z" fill="black"/>
<path d="M17.8504 14.6094C17.864 14.6195 17.871 14.6313 17.871 14.6444C17.871 14.6576 17.8654 14.6735 17.8544 14.6925C17.8434 14.7116 17.8332 14.7296 17.8236 14.7474C17.7947 14.7999 17.7506 14.8458 17.6908 14.8851C17.6311 14.9245 17.5718 14.9443 17.5129 14.9443C17.4497 14.9443 17.4038 14.9202 17.3751 14.872C17.3517 14.8327 17.3401 14.7781 17.3401 14.7079C17.3401 14.6831 17.3407 14.6648 17.342 14.6533L17.3749 14.2481C17.3777 14.2306 17.3801 14.2139 17.3821 14.1979C17.3842 14.1817 17.3853 14.1634 17.3853 14.1431C17.3853 14.0847 17.3722 14.0448 17.3461 14.0237C17.32 14.0026 17.2857 13.992 17.2431 13.992C17.1812 13.992 17.1201 14.0336 17.0597 14.1168C16.999 14.1999 16.9627 14.2911 16.9503 14.3904L16.8835 14.8806C16.8835 14.8983 16.8762 14.9129 16.8611 14.9246C16.8528 14.932 16.8406 14.9356 16.8243 14.9356H16.671C16.656 14.9356 16.6447 14.932 16.6373 14.9246C16.6297 14.9174 16.626 14.9065 16.626 14.8918C16.626 14.8802 16.626 14.8715 16.626 14.8656L16.8235 13.2651C16.8248 13.2579 16.8256 13.2468 16.8256 13.2324C16.8256 13.2221 16.8228 13.2086 16.8173 13.1918C16.8119 13.1751 16.7885 13.1665 16.7474 13.1665C16.7241 13.168 16.7063 13.1688 16.6939 13.1688C16.672 13.1688 16.6552 13.1663 16.6435 13.1612C16.6319 13.1562 16.626 13.1463 16.626 13.1321C16.626 13.1032 16.6542 13.0843 16.7105 13.0758C16.7585 13.0714 16.8073 13.0665 16.8567 13.0605C16.9075 13.052 16.9473 13.0447 16.9761 13.0388C17.0284 13.0287 17.0613 13.0238 17.075 13.0238C17.0875 13.0238 17.0949 13.0259 17.0977 13.0301C17.1072 13.0416 17.1107 13.0579 17.108 13.0792L16.9761 14.0972C17.024 14.0314 17.0645 13.9825 17.0975 13.9504C17.1989 13.8527 17.3004 13.8038 17.4018 13.8038C17.4745 13.8038 17.534 13.8314 17.5807 13.887C17.6219 13.9366 17.6424 13.9935 17.6424 14.0576L17.6219 14.4758C17.6219 14.4861 17.6208 14.5084 17.6187 14.5426C17.6166 14.5769 17.6157 14.597 17.6157 14.6027C17.6157 14.6437 17.619 14.6758 17.6259 14.699C17.6327 14.7224 17.6457 14.734 17.6649 14.734C17.6883 14.734 17.73 14.7012 17.7904 14.6356C17.8154 14.6094 17.8352 14.6006 17.8504 14.6094Z" fill="black"/>
<path d="M22.5272 13.5891C22.5272 13.7871 22.4517 13.932 22.3009 14.0243C22.1885 14.0932 22.052 14.1276 21.8915 14.1276C21.8133 14.1276 21.7598 14.1215 21.7309 14.1092C21.7021 14.0969 21.6816 14.0839 21.6692 14.0708C21.6569 14.0576 21.6534 14.0453 21.659 14.0337C21.6617 14.0219 21.6714 14.0162 21.6877 14.0162C21.7097 14.019 21.7261 14.0206 21.7371 14.0206L21.7968 14.0227C21.9243 14.0227 22.0224 13.9941 22.091 13.9368C22.165 13.8752 22.2021 13.7842 22.2021 13.664C22.2021 13.5362 22.1685 13.4259 22.1013 13.3327C22.0341 13.2394 21.9476 13.193 21.8421 13.193C21.8078 13.193 21.7796 13.1955 21.7577 13.2006C21.7358 13.2057 21.7152 13.2156 21.696 13.2303C21.6548 13.2625 21.6302 13.3201 21.6218 13.4036L21.4943 14.5887C21.4929 14.5976 21.4923 14.6064 21.4923 14.6152C21.4923 14.6267 21.4923 14.6349 21.4923 14.6393C21.4923 14.6949 21.5039 14.738 21.5273 14.7687C21.556 14.8068 21.6013 14.8305 21.6631 14.84C21.7248 14.8495 21.7557 14.8675 21.7557 14.8939C21.7557 14.9143 21.7436 14.9289 21.7196 14.9377C21.6956 14.9464 21.6644 14.951 21.6259 14.951C21.5971 14.951 21.5492 14.9479 21.482 14.9422C21.4148 14.9363 21.366 14.9333 21.3359 14.9333C21.2948 14.9333 21.2532 14.934 21.2114 14.9356C21.1696 14.9371 21.1287 14.9384 21.089 14.94C21.0547 14.94 21.03 14.9388 21.0149 14.9367C20.9998 14.9344 20.9902 14.9296 20.9861 14.9224C20.9819 14.9152 20.98 14.9078 20.98 14.9005C20.98 14.8874 20.9889 14.8747 21.0067 14.8623C21.0245 14.8497 21.0471 14.8396 21.0746 14.8314C21.102 14.8234 21.1267 14.7968 21.1487 14.7517C21.1665 14.7151 21.1783 14.6771 21.1837 14.6377L21.3175 13.4228C21.3188 13.4125 21.3195 13.3987 21.3195 13.3811C21.3195 13.3286 21.3061 13.2877 21.2793 13.2586C21.2526 13.2293 21.2173 13.2097 21.1734 13.1994C21.1542 13.195 21.1358 13.1906 21.1179 13.1862C21.0877 13.176 21.0726 13.1628 21.0726 13.1469C21.0726 13.125 21.0843 13.1099 21.1076 13.102C21.1309 13.094 21.1653 13.09 21.2106 13.09C21.2312 13.09 21.2929 13.0937 21.3957 13.1009C21.4368 13.1039 21.4732 13.1053 21.5047 13.1053C21.5541 13.1053 21.5939 13.1043 21.624 13.1022C21.7448 13.094 21.8079 13.09 21.8133 13.09C22.0382 13.09 22.2097 13.1266 22.3277 13.2C22.4607 13.2836 22.5272 13.4131 22.5272 13.5891Z" fill="black"/>
<path d="M23.65 14.6027C23.6636 14.6086 23.6706 14.6195 23.6706 14.6357C23.6706 14.6501 23.6657 14.6684 23.6562 14.6903C23.6548 14.6933 23.6446 14.7129 23.6254 14.7495C23.5951 14.8051 23.5527 14.8501 23.4977 14.8851C23.4429 14.9201 23.3894 14.9378 23.3372 14.9378C23.2961 14.9378 23.2577 14.9133 23.2221 14.8643C23.1865 14.8154 23.1686 14.7633 23.1686 14.7077C23.1096 14.7793 23.0527 14.8325 22.9979 14.8675C22.925 14.9143 22.8489 14.9377 22.7694 14.9377C22.6789 14.9377 22.6086 14.9004 22.5585 14.8261C22.5084 14.7517 22.4834 14.6582 22.4834 14.5458C22.4834 14.4685 22.4999 14.3851 22.5328 14.2961C22.5656 14.2073 22.6108 14.1195 22.6685 14.0336C22.7234 13.959 22.781 13.9028 22.8414 13.865C22.9113 13.8212 22.9874 13.7993 23.0697 13.7993C23.0834 13.7993 23.0958 13.7993 23.1068 13.7993C23.1178 13.7993 23.1348 13.8018 23.1581 13.8069C23.1815 13.812 23.2113 13.8248 23.2476 13.8452C23.284 13.8657 23.3111 13.8758 23.329 13.8758C23.344 13.8758 23.3595 13.871 23.3752 13.8615C23.391 13.852 23.4044 13.8377 23.4154 13.8187L23.4709 13.7418C23.4819 13.7272 23.4939 13.7148 23.5069 13.7045C23.5199 13.6943 23.5305 13.6922 23.5387 13.6978C23.5484 13.7037 23.5532 13.7155 23.5532 13.7331C23.5518 13.7475 23.5511 13.7585 23.5511 13.7658L23.44 14.4516C23.4372 14.466 23.4335 14.4883 23.4286 14.5183C23.4238 14.5482 23.4215 14.577 23.4215 14.6047C23.4215 14.64 23.4263 14.6691 23.4359 14.6925C23.4455 14.7159 23.462 14.729 23.4853 14.7319C23.5168 14.7377 23.5487 14.7163 23.5809 14.6674C23.6133 14.6185 23.6364 14.597 23.65 14.6027ZM23.2529 14.0226C23.2529 13.9219 23.2049 13.8715 23.1088 13.8715C23.0595 13.8715 23.0136 13.889 22.9709 13.924C22.934 13.9546 22.899 13.9995 22.8661 14.0587C22.8332 14.1179 22.8071 14.1824 22.7879 14.2524C22.7687 14.3224 22.7591 14.3955 22.7591 14.4714C22.7591 14.5707 22.7732 14.6429 22.8013 14.6881C22.8293 14.7334 22.8764 14.756 22.9422 14.756C23.0164 14.756 23.0704 14.7151 23.1047 14.6333C23.1445 14.537 23.1791 14.4328 23.2086 14.3203C23.2381 14.2079 23.2529 14.1088 23.2529 14.0226Z" fill="black"/>
<path d="M24.7749 14.0007C24.7749 14.0343 24.7635 14.0638 24.7409 14.0893C24.7183 14.1148 24.6912 14.1276 24.6596 14.1276C24.6363 14.1276 24.6154 14.1215 24.5969 14.1091C24.5783 14.0968 24.5629 14.0794 24.5506 14.0576C24.515 13.9935 24.4827 13.9493 24.4538 13.9251C24.425 13.9011 24.3948 13.8889 24.3633 13.8889C24.2892 13.8889 24.2264 13.9346 24.1751 14.0257C24.1237 14.117 24.0979 14.2319 24.0979 14.3707C24.0979 14.4932 24.1242 14.5931 24.1771 14.6705C24.23 14.7478 24.3077 14.7866 24.4106 14.7866C24.5025 14.7866 24.5828 14.7405 24.6514 14.6486C24.6568 14.6412 24.6644 14.6358 24.674 14.632C24.6835 14.6284 24.6918 14.6296 24.6987 14.6354C24.7083 14.6412 24.7131 14.6507 24.7131 14.6638C24.7131 14.6697 24.7111 14.6764 24.707 14.6836C24.6658 14.7551 24.6057 14.8152 24.5269 14.8642C24.448 14.9131 24.3668 14.9377 24.2831 14.9377C24.1459 14.9377 24.0368 14.9011 23.9558 14.8281C23.8749 14.7552 23.8345 14.6522 23.8345 14.5195C23.8345 14.3267 23.8914 14.1612 24.0053 14.0224C24.1273 13.8736 24.2809 13.7993 24.4661 13.7993C24.5717 13.7993 24.652 13.8219 24.707 13.867C24.7522 13.9052 24.7749 13.9497 24.7749 14.0007Z" fill="black"/>
<path d="M25.5154 14.5743C25.5222 14.5787 25.5256 14.5875 25.5256 14.6006C25.5256 14.6209 25.5154 14.6498 25.4948 14.687C25.4742 14.7243 25.4508 14.7589 25.4249 14.7911C25.3864 14.8361 25.3404 14.8719 25.287 14.8982C25.2335 14.9244 25.1828 14.9378 25.1347 14.9378C25.1072 14.9378 25.0811 14.9319 25.0565 14.9201C25.0291 14.9041 25.0099 14.8752 24.9988 14.8337C24.9878 14.792 24.9824 14.7435 24.9824 14.6879C24.9824 14.6516 24.9837 14.6244 24.9865 14.6069C24.9892 14.5893 24.9907 14.577 24.9907 14.5698L25.0874 14.0178C25.0901 13.9972 25.0915 13.9828 25.0915 13.974C25.0915 13.9638 25.0901 13.9558 25.0874 13.9499C25.0805 13.9309 25.0514 13.9173 24.9999 13.9093C24.9486 13.9013 24.9229 13.8842 24.9229 13.858C24.9229 13.8287 24.9537 13.8119 25.0155 13.8075C25.0662 13.8061 25.1176 13.8039 25.1697 13.8008C25.2013 13.7951 25.2379 13.7893 25.2798 13.7833C25.3215 13.7776 25.3494 13.7745 25.3631 13.7745C25.3781 13.7745 25.3878 13.7769 25.392 13.7812C25.4003 13.79 25.4043 13.7988 25.4043 13.8075C25.4043 13.8103 25.4016 13.8278 25.3961 13.86L25.2705 14.4668C25.2609 14.5149 25.2561 14.5602 25.2561 14.6026C25.2561 14.6332 25.2592 14.6588 25.2654 14.6793C25.2715 14.6997 25.2804 14.7118 25.2922 14.7155C25.3038 14.7191 25.3116 14.7208 25.3158 14.7208C25.3432 14.7208 25.3765 14.695 25.4155 14.6432C25.4547 14.5914 25.4811 14.5656 25.4948 14.5656C25.5031 14.5656 25.5099 14.5685 25.5154 14.5743ZM25.4783 13.3324C25.4783 13.3471 25.4516 13.3836 25.3981 13.4419C25.3445 13.5003 25.3103 13.5296 25.2952 13.5296C25.2841 13.5296 25.2582 13.4988 25.2171 13.4375C25.1759 13.3762 25.1559 13.3397 25.1574 13.328C25.1628 13.2989 25.1903 13.258 25.2397 13.2055C25.2891 13.153 25.322 13.1265 25.3384 13.1265C25.3508 13.1265 25.3772 13.1551 25.4177 13.212C25.4581 13.2688 25.4783 13.309 25.4783 13.3324Z" fill="black"/>
<path d="M26.6452 13.1709C26.637 13.2061 26.6253 13.2337 26.6102 13.2542C26.5952 13.2746 26.5739 13.2848 26.5465 13.2848C26.5163 13.2848 26.4865 13.2662 26.4569 13.2289C26.4274 13.1918 26.3949 13.1732 26.3592 13.1732C26.3372 13.1732 26.3184 13.1867 26.3027 13.2137C26.2869 13.2408 26.279 13.2695 26.279 13.3002L26.2565 13.8082H26.5033C26.5157 13.8082 26.5252 13.8118 26.5321 13.819C26.5349 13.8234 26.5369 13.8264 26.5382 13.8278C26.5423 13.8352 26.5444 13.8409 26.5444 13.8453V13.8978C26.5444 13.9022 26.5431 13.9081 26.5402 13.9154C26.5402 13.9169 26.5369 13.9217 26.53 13.9296C26.5231 13.9376 26.5135 13.9416 26.5012 13.9416H26.2338L26.137 14.8458C26.1233 14.9771 26.1034 15.0778 26.0773 15.1476C26.0417 15.2454 25.9869 15.3132 25.9127 15.3511C25.8935 15.3598 25.8764 15.3669 25.8614 15.3718C25.8463 15.3769 25.8312 15.3796 25.816 15.3796C25.7968 15.3796 25.7787 15.3756 25.7616 15.3676C25.7444 15.3595 25.7283 15.3463 25.7132 15.3282C25.6981 15.31 25.6867 15.2885 25.6792 15.2638C25.6717 15.2388 25.668 15.2149 25.668 15.1915C25.668 15.1739 25.6713 15.1631 25.6782 15.1587C25.6824 15.1559 25.6964 15.1515 25.7205 15.1456C25.7445 15.1397 25.7636 15.1324 25.7773 15.1236C25.8118 15.1033 25.8375 15.0742 25.8547 15.0363C25.8719 14.9982 25.8854 14.9276 25.8949 14.8241L25.9956 13.9418L25.7976 13.9415C25.7866 13.9415 25.7756 13.9358 25.7646 13.924C25.7619 13.9196 25.7604 13.9168 25.7604 13.9152C25.7564 13.9065 25.7543 13.9007 25.7543 13.8977V13.8431C25.7543 13.8357 25.7564 13.8292 25.7604 13.8233C25.7618 13.822 25.7639 13.8205 25.7666 13.8189C25.7708 13.8117 25.7803 13.8081 25.7954 13.8081H26.0032L26.0052 13.7687C26.0203 13.6198 26.0567 13.4789 26.1143 13.3461C26.1979 13.1549 26.3084 13.0447 26.4456 13.0156C26.4551 13.0126 26.4671 13.0105 26.4816 13.0089C26.496 13.0076 26.508 13.0068 26.5176 13.0068C26.5615 13.0068 26.5946 13.0177 26.6173 13.0396C26.64 13.0615 26.6513 13.09 26.6513 13.125C26.6514 13.1397 26.6494 13.1549 26.6452 13.1709Z" fill="black"/>
<path d="M27.3064 14.5743C27.3133 14.5787 27.3166 14.5875 27.3166 14.6006C27.3166 14.6209 27.3064 14.6498 27.2858 14.687C27.2652 14.7243 27.2418 14.7589 27.2158 14.7911C27.1774 14.8361 27.1314 14.8719 27.078 14.8982C27.0245 14.9245 26.9737 14.9378 26.9257 14.9378C26.8982 14.9378 26.8722 14.9319 26.8475 14.9201C26.8201 14.9041 26.8009 14.8752 26.7899 14.8337C26.7788 14.792 26.7734 14.7435 26.7734 14.6879C26.7734 14.6516 26.7747 14.6244 26.7775 14.6069C26.7803 14.5893 26.7817 14.577 26.7817 14.5698L26.8784 14.0178C26.8811 13.9972 26.8825 13.9828 26.8825 13.974C26.8825 13.9638 26.8811 13.9558 26.8784 13.9499C26.8715 13.9309 26.8424 13.9173 26.7909 13.9093C26.7396 13.9013 26.7139 13.8842 26.7139 13.858C26.7139 13.8287 26.7447 13.8119 26.8065 13.8075C26.8571 13.8061 26.9086 13.8039 26.9607 13.8008C26.9923 13.7951 27.0289 13.7893 27.0708 13.7833C27.1126 13.7776 27.1405 13.7745 27.1541 13.7745C27.1691 13.7745 27.1788 13.7769 27.183 13.7812C27.1912 13.79 27.1953 13.7988 27.1953 13.8075C27.1953 13.8103 27.1926 13.8278 27.1871 13.86L27.0615 14.4668C27.0519 14.5149 27.0471 14.5602 27.0471 14.6026C27.0471 14.6332 27.0502 14.6588 27.0564 14.6793C27.0625 14.6997 27.0715 14.7118 27.0832 14.7155C27.0948 14.7191 27.1026 14.7208 27.1068 14.7208C27.1342 14.7208 27.1675 14.695 27.2065 14.6432C27.2457 14.5914 27.2722 14.5656 27.2858 14.5656C27.294 14.5656 27.3009 14.5685 27.3064 14.5743ZM27.2693 13.3324C27.2693 13.3471 27.2426 13.3836 27.1891 13.4419C27.1356 13.5003 27.1013 13.5296 27.0862 13.5296C27.0752 13.5296 27.0492 13.4988 27.0081 13.4375C26.9669 13.3762 26.947 13.3397 26.9484 13.328C26.9538 13.2989 26.9813 13.258 27.0307 13.2055C27.0801 13.153 27.1129 13.1265 27.1295 13.1265C27.1418 13.1265 27.1683 13.1551 27.2087 13.212C27.249 13.2688 27.2693 13.309 27.2693 13.3324Z" fill="black"/>
<path d="M28.4326 14.0007C28.4326 14.0343 28.4211 14.0638 28.3986 14.0893C28.3759 14.1148 28.3489 14.1276 28.3172 14.1276C28.294 14.1276 28.2731 14.1215 28.2546 14.1091C28.236 14.0968 28.2207 14.0794 28.2083 14.0576C28.1726 13.9935 28.1404 13.9493 28.1115 13.9251C28.0827 13.9011 28.0525 13.8889 28.021 13.8889C27.9469 13.8889 27.8841 13.9346 27.8328 14.0257C27.7813 14.117 27.7556 14.2319 27.7556 14.3707C27.7556 14.4932 27.782 14.5931 27.8348 14.6705C27.8877 14.7478 27.9654 14.7866 28.0684 14.7866C28.1602 14.7866 28.2405 14.7405 28.3091 14.6486C28.3145 14.6412 28.3222 14.6358 28.3316 14.632C28.3412 14.6284 28.3495 14.6296 28.3563 14.6354C28.366 14.6412 28.3708 14.6507 28.3708 14.6638C28.3708 14.6697 28.3687 14.6764 28.3647 14.6836C28.3235 14.7551 28.2634 14.8152 28.1846 14.8642C28.1058 14.9131 28.0244 14.9377 27.9408 14.9377C27.8037 14.9377 27.6945 14.9011 27.6135 14.8281C27.5326 14.7552 27.4922 14.6522 27.4922 14.5195C27.4922 14.3267 27.5491 14.1611 27.663 14.0224C27.785 13.8736 27.9386 13.7992 28.1238 13.7992C28.2294 13.7992 28.3097 13.8219 28.3647 13.867C28.4099 13.9052 28.4326 13.9497 28.4326 14.0007Z" fill="black"/>
<path d="M32.9859 13.4622C32.9859 13.481 32.9839 13.4957 32.9798 13.5059C32.9757 13.5162 32.9661 13.5211 32.951 13.5211C32.9304 13.5211 32.9146 13.5053 32.9038 13.4734C32.8653 13.3691 32.8412 13.3111 32.8317 13.2995C32.8098 13.2749 32.7512 13.255 32.6558 13.2397C32.5604 13.2245 32.4621 13.2169 32.3607 13.2169C32.3002 13.2169 32.2508 13.2192 32.2124 13.2236C32.174 13.228 32.1494 13.2359 32.1385 13.2476C32.1178 13.2682 32.0986 13.3302 32.0808 13.4337C32.0629 13.5374 32.054 13.6198 32.054 13.681V13.8803C32.054 13.8965 32.0575 13.9096 32.0642 13.9197C32.0712 13.9299 32.0815 13.935 32.0952 13.935H32.3441C32.3989 13.935 32.4518 13.9168 32.5026 13.8802C32.5231 13.8657 32.5505 13.8293 32.5848 13.7708C32.615 13.7198 32.6369 13.6941 32.6507 13.6941C32.6575 13.6941 32.6641 13.6983 32.6702 13.7063C32.6764 13.7143 32.6794 13.7242 32.6794 13.7358C32.6794 13.7417 32.6781 13.7533 32.6753 13.7708L32.628 14.248C32.628 14.2714 32.6267 14.2885 32.624 14.2995C32.6211 14.3104 32.6128 14.3166 32.5993 14.318C32.5787 14.3195 32.5595 14.2874 32.5416 14.2217C32.5238 14.156 32.5026 14.1138 32.4779 14.0948C32.4285 14.0582 32.3682 14.04 32.2968 14.04H32.1198C32.0856 14.04 32.0575 14.0561 32.0356 14.0883C32.0136 14.1205 31.9974 14.1812 31.9872 14.2704C31.9769 14.3596 31.9718 14.4576 31.9718 14.5646V14.659C31.9718 14.6793 31.9734 14.6966 31.9769 14.7105C31.9803 14.7244 31.9872 14.7387 31.9975 14.7533C32.0078 14.768 32.0204 14.7796 32.0356 14.7883C32.041 14.7914 32.0575 14.7986 32.085 14.8104C32.0973 14.8161 32.1161 14.8212 32.1415 14.8256C32.1671 14.83 32.1847 14.8344 32.1951 14.8388C32.2053 14.8433 32.2126 14.8469 32.2168 14.8498C32.2278 14.8586 32.2332 14.8712 32.2332 14.8871C32.2332 14.9092 32.223 14.9241 32.2024 14.9322C32.1818 14.9403 32.1522 14.9442 32.1139 14.9442C32.0932 14.9442 32.0552 14.9414 31.9996 14.9354C31.9441 14.9296 31.9046 14.9267 31.8813 14.9267C31.8526 14.9267 31.8007 14.9281 31.7261 14.931C31.6513 14.9339 31.6119 14.9354 31.6078 14.9354C31.5323 14.9354 31.4898 14.9282 31.4802 14.9135C31.4761 14.9063 31.4741 14.8989 31.4741 14.8916C31.4741 14.877 31.4823 14.8642 31.4988 14.8533C31.5152 14.8423 31.5382 14.832 31.5677 14.8225C31.5972 14.8132 31.6215 14.7842 31.6407 14.7361C31.6557 14.6982 31.6653 14.6565 31.6695 14.6113L31.8033 13.3678C31.8046 13.359 31.8052 13.3475 31.8052 13.3328C31.8052 13.2993 31.7963 13.2723 31.7785 13.2518C31.7606 13.2314 31.7263 13.2131 31.6756 13.1971C31.651 13.1897 31.6262 13.1825 31.6016 13.1751C31.581 13.1663 31.5706 13.1562 31.5706 13.1445C31.5706 13.1269 31.584 13.1161 31.6108 13.1117C31.6375 13.1073 31.666 13.105 31.6962 13.105C31.7318 13.105 31.7847 13.107 31.8546 13.1105C31.9245 13.1141 31.965 13.116 31.976 13.116H32.6508C32.6961 13.116 32.7403 13.1149 32.7836 13.1124C32.8267 13.1099 32.869 13.1074 32.9101 13.1049C32.9444 13.1049 32.9656 13.1064 32.9739 13.1093C32.9821 13.1124 32.9862 13.1219 32.9862 13.1379V13.4622H32.9859Z" fill="black"/>
<path d="M33.6604 14.5525C33.6742 14.5582 33.681 14.5708 33.681 14.5896C33.681 14.6071 33.6756 14.629 33.6646 14.6553C33.6591 14.6699 33.6481 14.691 33.6317 14.7188C33.6043 14.7728 33.5624 14.821 33.5062 14.8632C33.4431 14.9114 33.3827 14.9355 33.3251 14.9355C33.3032 14.9355 33.2806 14.9311 33.2573 14.9224C33.205 14.9005 33.1691 14.8718 33.1492 14.8358C33.1293 14.8002 33.1194 14.7554 33.1194 14.7013C33.1194 14.6779 33.1214 14.6508 33.1255 14.6202C33.1296 14.5896 33.1324 14.5664 33.1337 14.5501L33.286 13.2848C33.2874 13.276 33.288 13.2637 33.288 13.2475C33.288 13.2315 33.2856 13.2169 33.2809 13.2037C33.2761 13.1906 33.2682 13.1814 33.2573 13.1763C33.2463 13.1712 33.2256 13.1687 33.1956 13.1687C33.1791 13.1687 33.1668 13.1687 33.1585 13.1687C33.1379 13.1687 33.1225 13.167 33.1123 13.1634C33.1019 13.1597 33.0967 13.1514 33.0967 13.1384C33.0967 13.1079 33.1248 13.0878 33.1812 13.0777C33.2306 13.072 33.2723 13.0666 33.3067 13.0615C33.341 13.0564 33.3746 13.0503 33.4074 13.0431C33.4678 13.0302 33.5062 13.0237 33.5226 13.0237C33.5336 13.0237 33.5404 13.0258 33.5432 13.0302C33.5583 13.0507 33.5638 13.0732 33.5597 13.0981L33.3951 14.6115C33.3951 14.6347 33.3992 14.657 33.4074 14.6781C33.4157 14.6992 33.4301 14.7127 33.4507 14.7187C33.4876 14.7274 33.5292 14.7007 33.5752 14.6387C33.6211 14.5769 33.6495 14.5481 33.6604 14.5525Z" fill="black"/>
<path d="M34.9855 14.6027C34.9992 14.6086 35.0061 14.6195 35.0061 14.6357C35.0061 14.6501 35.0013 14.6684 34.9917 14.6903C34.9904 14.6933 34.9801 14.7129 34.9608 14.7495C34.9306 14.8051 34.8881 14.8501 34.8333 14.8851C34.7783 14.9201 34.7249 14.9378 34.6727 14.9378C34.6316 14.9378 34.5931 14.9133 34.5576 14.8643C34.5219 14.8154 34.504 14.7633 34.504 14.7077C34.4452 14.7793 34.3881 14.8325 34.3333 14.8675C34.2606 14.9143 34.1845 14.9377 34.1049 14.9377C34.0144 14.9377 33.944 14.9004 33.894 14.8261C33.8439 14.7517 33.8188 14.6582 33.8188 14.5458C33.8188 14.4685 33.8353 14.3851 33.8682 14.2961C33.9012 14.2073 33.9464 14.1195 34.0041 14.0336C34.0589 13.959 34.1165 13.9028 34.1769 13.865C34.2468 13.8212 34.3228 13.7993 34.4053 13.7993C34.4189 13.7993 34.4313 13.7993 34.4422 13.7993C34.4532 13.7993 34.4704 13.8018 34.4937 13.8069C34.517 13.812 34.5469 13.8248 34.5832 13.8452C34.6195 13.8657 34.6466 13.8758 34.6644 13.8758C34.6796 13.8758 34.695 13.871 34.7107 13.8615C34.7264 13.852 34.7398 13.8377 34.7509 13.8187L34.8063 13.7418C34.8174 13.7272 34.8294 13.7148 34.8424 13.7045C34.8554 13.6943 34.866 13.6922 34.8743 13.6978C34.8839 13.7037 34.8887 13.7155 34.8887 13.7331C34.8874 13.7475 34.8867 13.7585 34.8867 13.7658L34.7755 14.4516C34.7728 14.466 34.769 14.4883 34.7642 14.5183C34.7594 14.5482 34.757 14.577 34.757 14.6047C34.757 14.64 34.7618 14.6691 34.7714 14.6925C34.7809 14.7159 34.7974 14.729 34.8207 14.7319C34.8524 14.7377 34.8842 14.7163 34.9165 14.6674C34.9486 14.6185 34.9717 14.597 34.9855 14.6027ZM34.5884 14.0226C34.5884 13.9219 34.5403 13.8715 34.4444 13.8715C34.395 13.8715 34.349 13.889 34.3065 13.924C34.2694 13.9546 34.2344 13.9995 34.2016 14.0587C34.1687 14.1178 34.1425 14.1824 34.1233 14.2524C34.1042 14.3224 34.0946 14.3955 34.0946 14.4714C34.0946 14.5707 34.1086 14.6429 34.1367 14.6881C34.1649 14.7334 34.2119 14.756 34.2777 14.756C34.3518 14.756 34.4059 14.7151 34.4403 14.6333C34.4801 14.537 34.5146 14.4328 34.5442 14.3203C34.5737 14.2079 34.5884 14.1088 34.5884 14.0226Z" fill="black"/>
<path d="M36.245 13.8079C36.2738 13.8429 36.2882 13.8962 36.2882 13.9676C36.2882 14.0696 36.2607 14.1976 36.2059 14.3521C36.1648 14.4701 36.1291 14.5531 36.0989 14.6012C36.0427 14.6989 35.9733 14.7816 35.8911 14.8494C35.8088 14.9171 35.732 14.951 35.6607 14.951C35.6332 14.951 35.6092 14.9459 35.5886 14.9356C35.531 14.9094 35.4912 14.8416 35.4692 14.7324C35.4528 14.651 35.448 14.5933 35.4548 14.5598C35.3768 14.5263 35.3274 14.4994 35.3067 14.479C35.2478 14.4208 35.2183 14.3291 35.2183 14.2037C35.2183 14.109 35.256 14.0161 35.3315 13.9251C35.4069 13.834 35.4885 13.7885 35.5763 13.7885C35.6531 13.7885 35.7021 13.8119 35.7234 13.8585C35.7447 13.9049 35.7553 14.0077 35.7553 14.1664C35.7553 14.2145 35.7505 14.2872 35.7409 14.3848C35.7313 14.4824 35.7265 14.5509 35.7265 14.5901C35.7265 14.6367 35.731 14.6738 35.7399 14.7016C35.7489 14.7292 35.7656 14.746 35.7903 14.7518C35.852 14.7678 35.9233 14.7128 36.0042 14.5868C36.0852 14.4609 36.1256 14.3382 36.1256 14.2186C36.1256 14.1678 36.1085 14.1052 36.0743 14.0308C36.0578 13.9945 36.0496 13.9595 36.0496 13.926C36.0455 13.878 36.0575 13.843 36.0856 13.8211C36.1136 13.7994 36.1463 13.7884 36.1833 13.7884C36.212 13.7883 36.2327 13.795 36.245 13.8079ZM35.4836 14.0336C35.4864 14.0249 35.4851 14.0174 35.4795 14.0117C35.4713 14.0029 35.4535 14.0046 35.4261 14.0171C35.3986 14.0296 35.377 14.0485 35.3612 14.0741C35.3455 14.0996 35.3332 14.1327 35.3242 14.1736C35.3153 14.2145 35.3109 14.2495 35.3109 14.2786C35.3109 14.2962 35.3126 14.3192 35.3159 14.3477C35.3194 14.3761 35.3328 14.4035 35.3562 14.4298C35.3739 14.4503 35.3944 14.4604 35.4179 14.4604C35.4315 14.4604 35.4419 14.456 35.4487 14.4472C35.4529 14.4428 35.4548 14.4349 35.4548 14.4232L35.4836 14.0336Z" fill="black"/>
<path d="M37.4034 14.281C37.4034 14.4634 37.3547 14.619 37.2573 14.7473C37.1545 14.883 37.0215 14.9509 36.8582 14.9509C36.7252 14.9509 36.6172 14.9016 36.5342 14.803C36.4512 14.7045 36.4097 14.5823 36.4097 14.4364C36.4097 14.2642 36.4664 14.1149 36.5794 13.9887C36.6926 13.8623 36.8294 13.7994 36.9899 13.7994C37.1201 13.7994 37.2231 13.846 37.2986 13.9394C37.3684 14.027 37.4034 14.1407 37.4034 14.281ZM37.1339 14.1518C37.1339 14.0715 37.1243 14.0087 37.1051 13.9636C37.0804 13.9052 37.0385 13.8759 36.9796 13.8759C36.9343 13.8759 36.8951 13.8888 36.8623 13.9143C36.8294 13.9397 36.8027 13.9744 36.7821 14.0181C36.7492 14.0912 36.7251 14.1762 36.71 14.2733C36.6949 14.3703 36.6873 14.4706 36.6873 14.5743C36.6873 14.6706 36.7028 14.7431 36.7337 14.792C36.7645 14.8409 36.8074 14.8655 36.8622 14.8655C36.9322 14.8655 36.9904 14.8187 37.0371 14.7252C37.0741 14.6508 37.0995 14.5672 37.1133 14.4746C37.127 14.382 37.1339 14.2743 37.1339 14.1518Z" fill="black"/>
<path d="M38.8968 14.5852C38.9104 14.591 38.9173 14.6021 38.9173 14.6183C38.9173 14.6315 38.9133 14.6468 38.905 14.6645C38.9021 14.6704 38.8927 14.6879 38.8762 14.7174C38.8447 14.776 38.794 14.8297 38.7239 14.8782C38.654 14.9266 38.584 14.9509 38.5141 14.9509C38.4648 14.9463 38.4309 14.9272 38.4122 14.8936C38.3937 14.8599 38.3845 14.8159 38.3845 14.7617C38.3845 14.7514 38.3845 14.7404 38.3845 14.7288C38.3872 14.7142 38.3886 14.7031 38.3886 14.6957L38.4134 14.4121L38.3022 14.6157C38.2528 14.712 38.191 14.7902 38.1171 14.85C38.0334 14.9171 37.945 14.9508 37.8516 14.9508C37.7981 14.9508 37.7597 14.9295 37.7365 14.8873C37.7186 14.8551 37.7097 14.8121 37.7097 14.7581C37.7097 14.7333 37.711 14.711 37.7138 14.6913C37.7164 14.6717 37.7193 14.6551 37.7221 14.642L37.792 14.2217C37.7947 14.2041 37.7985 14.1794 37.8033 14.1473C37.8081 14.1151 37.8104 14.0948 37.8104 14.086C37.8104 14.0598 37.8074 14.0392 37.8013 14.0247C37.795 14.0101 37.7831 14.002 37.7652 14.0006C37.7324 13.9962 37.7004 14.0255 37.6696 14.0881C37.6387 14.1509 37.6138 14.1786 37.5945 14.1714C37.5794 14.1656 37.5718 14.1501 37.5718 14.1254C37.5718 14.0991 37.5794 14.0677 37.5945 14.0312C37.6055 14.0036 37.6191 13.9772 37.6356 13.9524C37.6685 13.8999 37.714 13.855 37.7725 13.8177C37.8307 13.7806 37.8839 13.762 37.9319 13.762C37.9386 13.762 37.9491 13.7635 37.9627 13.7664C38.0093 13.7795 38.0431 13.8101 38.0637 13.8583C38.0786 13.8933 38.0862 13.9342 38.0862 13.981C38.0862 14.0058 38.0848 14.024 38.0821 14.0356L38.0142 14.4889C38.0115 14.5093 38.0087 14.5327 38.006 14.5589C38.0032 14.5851 38.0019 14.6085 38.0019 14.6289C38.0019 14.6595 38.005 14.6833 38.0111 14.7001C38.0172 14.7168 38.0286 14.7252 38.0451 14.7252C38.0987 14.7252 38.1617 14.6691 38.2344 14.5568C38.3139 14.4341 38.3858 14.2882 38.4505 14.1188C38.4654 14.078 38.4833 14.0196 38.5039 13.9437C38.5093 13.9203 38.5176 13.8876 38.5285 13.8451L38.5389 13.8211C38.5458 13.808 38.5546 13.8014 38.5656 13.8014H38.7692C38.7748 13.8014 38.7788 13.8021 38.7817 13.8037C38.7843 13.8065 38.7871 13.8094 38.79 13.8124C38.794 13.8182 38.7947 13.8292 38.7919 13.8452L38.6725 14.4889C38.6684 14.5151 38.6652 14.5391 38.6633 14.5612C38.6612 14.5831 38.6602 14.6013 38.6602 14.6158C38.6602 14.6494 38.6633 14.6757 38.6694 14.6945C38.6756 14.7136 38.6876 14.7238 38.7055 14.7251C38.7383 14.7251 38.7747 14.7 38.8145 14.6498C38.8542 14.5994 38.8817 14.578 38.8968 14.5852Z" fill="black"/>
<path d="M40.0268 13.9219L39.9855 14.0773C39.9801 14.1007 39.9691 14.1123 39.9527 14.1123C39.9457 14.1123 39.939 14.11 39.9321 14.1057C39.9253 14.1013 39.9191 14.0956 39.9137 14.0881C39.8671 14.0284 39.8424 13.997 39.8397 13.9941C39.8232 13.9779 39.8088 13.97 39.7964 13.97C39.7566 13.97 39.719 14.0153 39.6833 14.1057C39.6546 14.1787 39.632 14.2678 39.6154 14.3728L39.5341 14.8938C39.5341 14.9044 39.531 14.9145 39.5249 14.9239C39.5187 14.933 39.5123 14.9377 39.5054 14.9377H39.2922C39.2867 14.9377 39.2826 14.937 39.2799 14.9354C39.2757 14.9311 39.2731 14.9282 39.2717 14.9267C39.2703 14.9239 39.2696 14.9187 39.2696 14.9113C39.2696 14.9025 39.2696 14.8968 39.2696 14.8938L39.358 14.2961C39.3622 14.2698 39.3641 14.2422 39.3641 14.2129C39.3641 14.1648 39.3584 14.1243 39.3467 14.0915C39.335 14.0586 39.3155 14.04 39.288 14.0356C39.2565 14.0299 39.2244 14.0655 39.1913 14.1429C39.1762 14.1779 39.1611 14.1918 39.1461 14.1845C39.1255 14.1743 39.1152 14.1553 39.1152 14.1275C39.1152 14.1071 39.1199 14.0841 39.1294 14.0586C39.139 14.0331 39.1491 14.0094 39.16 13.9874C39.1913 13.9277 39.23 13.8802 39.2761 13.8451C39.3222 13.81 39.3706 13.7926 39.4208 13.7926C39.4548 13.7926 39.4812 13.8109 39.5003 13.8474C39.5139 13.8736 39.5254 13.9108 39.5349 13.9589L39.5597 14.0948L39.6075 14.0161C39.6324 13.9736 39.6719 13.9299 39.7257 13.8846C39.8004 13.8233 39.8717 13.7926 39.9395 13.7926C39.974 13.7926 39.9982 13.8007 40.0121 13.8168C40.0259 13.8328 40.0329 13.8531 40.0329 13.8781C40.0329 13.8941 40.0308 13.9088 40.0268 13.9219Z" fill="black"/>
<path d="M40.9092 13.9196C40.9161 13.9343 40.9194 13.9497 40.9194 13.9657C40.9194 13.995 40.9102 14.0209 40.8916 14.0433C40.8731 14.066 40.8496 14.0774 40.8208 14.0774C40.7988 14.0774 40.7754 14.0686 40.7507 14.0511C40.737 14.0409 40.7192 14.0121 40.6973 13.9646C40.6752 13.9172 40.653 13.8889 40.6303 13.8794C40.6077 13.8698 40.5868 13.8651 40.5676 13.8651C40.5347 13.8651 40.5076 13.875 40.4863 13.8946C40.465 13.9143 40.4545 13.9461 40.4545 13.9901C40.4545 14.0048 40.4558 14.0198 40.4586 14.035C40.4612 14.0504 40.4695 14.0662 40.4832 14.0822C40.4928 14.094 40.51 14.1092 40.5346 14.1282L40.7096 14.273C40.7315 14.2907 40.7503 14.3075 40.7662 14.3235C40.7819 14.3397 40.7959 14.3587 40.8082 14.3805C40.8289 14.4155 40.845 14.4527 40.8566 14.4913C40.8682 14.5301 40.8742 14.567 40.8742 14.6021C40.8742 14.6461 40.8662 14.6869 40.8505 14.725C40.8348 14.763 40.8098 14.798 40.7753 14.8302C40.7288 14.8756 40.6804 14.9071 40.6303 14.9245C40.5803 14.9421 40.5203 14.951 40.4503 14.951C40.3598 14.951 40.2823 14.9333 40.2178 14.8983C40.1396 14.856 40.1006 14.7956 40.1006 14.7166C40.1032 14.6787 40.1155 14.6502 40.1375 14.6314C40.1595 14.6123 40.1849 14.6028 40.2136 14.6028C40.2493 14.6028 40.2747 14.6146 40.2898 14.6378C40.298 14.651 40.3124 14.6875 40.333 14.7474C40.3632 14.8349 40.4078 14.8787 40.4668 14.8787C40.5258 14.8787 40.572 14.8621 40.6057 14.8292C40.6393 14.7963 40.6562 14.7557 40.6562 14.7076C40.6562 14.6739 40.6472 14.6391 40.6293 14.6033C40.6115 14.5675 40.5854 14.535 40.5512 14.5057L40.3536 14.3323C40.2769 14.2652 40.2384 14.189 40.2384 14.1042C40.2384 14.037 40.2624 13.9752 40.3105 13.9188C40.3584 13.8625 40.4201 13.8248 40.4956 13.8058C40.5421 13.7942 40.5868 13.7883 40.6292 13.7883C40.6937 13.7883 40.7513 13.7997 40.802 13.8221C40.8529 13.8449 40.8886 13.8774 40.9092 13.9196Z" fill="black"/>
</g>
</mask>
<g mask="url(#mask0_1382_13896)">
<rect x="0.67749" y="0.307144" width="52.5503" height="19.3857" fill="#6366F1"/>
</g>
<defs>
<clipPath id="clip0_1382_13896">
<rect width="45" height="11.5" fill="white" transform="translate(4 4.25)"/>
</clipPath>
</defs>
</svg>
