<svg width="44" height="24" viewBox="0 0 44 24" fill="none" xmlns="http://www.w3.org/2000/svg">
<mask id="mask0_1382_13894" style="mask-type:alpha" maskUnits="userSpaceOnUse" x="3" y="4" width="37" height="16">
<path fill-rule="evenodd" clip-rule="evenodd" d="M35.1743 10.2366C35.1743 13.0505 33.1378 15.3316 30.6257 15.3316C29.6139 15.3316 28.6793 14.9616 27.9238 14.3358L28.3888 19.5985L25.9166 19.8409L24.6924 5.98482L26.711 5.7869L27.0197 7.13065C27.8513 5.92098 29.1572 5.14154 30.6257 5.14154C33.1378 5.14154 35.1743 7.42266 35.1743 10.2366ZM30.108 13.148C31.5708 13.148 32.7566 11.8988 32.7566 10.3579C32.7566 8.81693 31.5708 7.56775 30.108 7.56775C28.6453 7.56775 27.4595 8.81693 27.4595 10.3579C27.4595 11.8988 28.6453 13.148 30.108 13.148Z" fill="#F9365E"/>
<path fill-rule="evenodd" clip-rule="evenodd" d="M24.0038 11.1905C24.0039 11.1758 24.004 11.1611 24.004 11.1463C24.004 8.29893 21.8128 5.99066 19.1099 5.99066C16.407 5.99066 14.2158 8.29893 14.2158 11.1463C14.2158 13.9937 16.407 16.302 19.1099 16.302C21.4612 16.302 23.4253 14.5552 23.8965 12.2262L21.4885 12.6426C21.0992 13.4809 20.3715 14.0919 19.4793 14.2151C18.2997 14.3779 17.1894 13.6385 16.6838 12.4699L20.5773 11.7967L20.5752 11.7833L24.0038 11.1905ZM18.7164 8.08071C19.8964 7.91784 21.0069 8.6577 21.5123 9.82686L16.4178 10.7078C16.5606 9.35773 17.4806 8.25128 18.7164 8.08071Z" fill="#FF781E"/>
<path fill-rule="evenodd" clip-rule="evenodd" d="M11.9696 5.20223L14.5619 5.02057L10.0134 19.0925L10.012 19.0918L10.012 19.0922L6.52594 19.367L6.37988 16.9554L8.16851 16.8352L8.74691 15.065L3.99902 6.18243L6.6721 5.93003L9.7474 12.0031L11.9696 5.20223Z" fill="#FFAD01"/>
<path fill-rule="evenodd" clip-rule="evenodd" d="M39.2695 4.33446L36.3975 4.24997L36.3079 7.62837L36.3828 12.467L38.5132 12.5297L39.2143 6.41527L39.2695 4.33446ZM37.3045 17.2725C38.2267 17.2725 38.9743 16.485 38.9743 15.5135C38.9743 14.5421 38.2267 13.7545 37.3045 13.7545C36.3823 13.7545 35.6348 14.5421 35.6348 15.5135C35.6348 16.485 36.3823 17.2725 37.3045 17.2725Z" fill="#D2178C"/>
</mask>
<g mask="url(#mask0_1382_13894)">
<rect x="2.17969" y="0.454086" width="40.9615" height="23.4082" fill="#6366F1"/>
</g>
</svg>
