<svg width="88" height="48" viewBox="0 0 88 48" fill="none" xmlns="http://www.w3.org/2000/svg">
<mask id="mask0_1382_13062" style="mask-type:alpha" maskUnits="userSpaceOnUse" x="8" y="8" width="72" height="32">
<path fill-rule="evenodd" clip-rule="evenodd" d="M70.7485 20.4731C70.7485 26.1009 66.6756 30.6631 61.6513 30.6631C59.6278 30.6631 57.7586 29.9231 56.2476 28.6715L57.1775 39.1969L52.2331 39.6817L49.7847 11.9696L53.8218 11.5738L54.4392 14.2613C56.1025 11.842 58.7144 10.2831 61.6513 10.2831C66.6756 10.2831 70.7485 14.8453 70.7485 20.4731ZM60.6159 26.296C63.5415 26.296 65.9131 23.7976 65.9131 20.7158C65.9131 17.6339 63.5415 15.1355 60.6159 15.1355C57.6904 15.1355 55.3188 17.6339 55.3188 20.7158C55.3188 23.7976 57.6904 26.296 60.6159 26.296Z" fill="#F9365E"/>
<path fill-rule="evenodd" clip-rule="evenodd" d="M48.4075 22.381C48.4077 22.3516 48.4079 22.3221 48.4079 22.2927C48.4079 16.5979 44.0256 11.9813 38.6197 11.9813C33.2139 11.9813 28.8315 16.5979 28.8315 22.2927C28.8315 27.9875 33.2139 32.604 38.6197 32.604C43.3224 32.604 47.2505 29.1103 48.1928 24.4524L43.377 25.2851C42.5983 26.9618 41.143 28.1839 39.3586 28.4302C36.9992 28.7558 34.7787 27.277 33.7675 24.9399L41.5545 23.5934L41.5503 23.5667L48.4075 22.381ZM37.8326 16.1614C40.1927 15.8357 42.4138 17.3154 43.4246 19.6537L33.2355 21.4155C33.5211 18.7155 35.3612 16.5026 37.8326 16.1614Z" fill="#FF781E"/>
<path fill-rule="evenodd" clip-rule="evenodd" d="M24.339 10.4045L29.5238 10.0411L20.4268 38.185L20.4239 38.1837L20.4239 38.1843L13.4518 38.734L13.1597 33.9109L16.7369 33.6704L17.8937 30.13L8.39795 12.3649L13.7441 11.8601L19.8947 24.0061L24.339 10.4045Z" fill="#FFAD01"/>
<path fill-rule="evenodd" clip-rule="evenodd" d="M78.9389 8.66892L73.1948 8.49994L73.0157 15.2567L73.1656 24.934L77.4263 25.0594L78.8286 12.8305L78.9389 8.66892ZM75.0089 34.5451C76.8533 34.5451 78.3484 32.97 78.3484 31.0271C78.3484 29.0841 76.8533 27.5091 75.0089 27.5091C73.1646 27.5091 71.6694 29.0841 71.6694 31.0271C71.6694 32.97 73.1646 34.5451 75.0089 34.5451Z" fill="#D2178C"/>
</mask>
<g mask="url(#mask0_1382_13062)">
<rect x="4.75903" y="0.908173" width="81.9231" height="46.8163" fill="#6366F1"/>
</g>
</svg>
