<svg width="58" height="16" viewBox="0 0 58 16" fill="none" xmlns="http://www.w3.org/2000/svg">
<path d="M4.5 11.3478V4.65217C4.5 4.28261 4.65102 4.09783 4.95305 4.09783H5.53935C5.84139 4.09783 5.99241 4.28261 5.99241 4.65217V7.08696H7.27161V4.65217C7.27161 4.28261 7.42263 4.09783 7.72466 4.09783H8.30208C8.60412 4.09783 8.75513 4.28261 8.75513 4.65217V11.3478C8.75513 11.7174 8.60412 11.9022 8.30208 11.9022H7.72466C7.42263 11.9022 7.27161 11.7174 7.27161 11.3478V8.69565H5.99241V11.3478C5.99241 11.7174 5.84139 11.9022 5.53935 11.9022H4.95305C4.65102 11.9022 4.5 11.7174 4.5 11.3478Z" fill="#6366F1"/>
<path d="M13.9617 8.01087C13.9617 10.6703 13.2096 12 11.7053 12C10.2011 12 9.44894 10.6703 9.44894 8.01087C9.44894 6.71377 9.61772 5.72101 9.95529 5.03261C10.2988 4.3442 10.8821 4 11.7053 4C12.5285 4 13.1089 4.3442 13.4465 5.03261C13.7899 5.72101 13.9617 6.71377 13.9617 8.01087ZM11.1368 9.96739C11.2493 10.3297 11.4388 10.5109 11.7053 10.5109C11.9718 10.5109 12.1613 10.3297 12.2738 9.96739C12.3864 9.60507 12.4426 8.9529 12.4426 8.01087C12.4426 7.09058 12.3864 6.44203 12.2738 6.06522C12.1672 5.68841 11.9777 5.5 11.7053 5.5C11.4329 5.5 11.2404 5.68841 11.1279 6.06522C11.0213 6.44203 10.968 7.09058 10.968 8.01087C10.968 8.9529 11.0243 9.60507 11.1368 9.96739Z" fill="#6366F1"/>
<path d="M14.6586 11.3478V4.65217C14.6586 4.28261 14.8096 4.09783 15.1117 4.09783H16.0977C16.4057 4.09783 16.5893 4.27536 16.6485 4.63044L17.3592 8.6087H17.3769L18.132 4.63044C18.2031 4.27536 18.3896 4.09783 18.6917 4.09783H19.6244C19.9265 4.09783 20.0775 4.28261 20.0775 4.65217V11.3478C20.0775 11.7174 19.9265 11.9022 19.6244 11.9022H19.2158C18.9137 11.9022 18.7627 11.7174 18.7627 11.3478V7.05435H18.745L17.9899 11.3587C17.9307 11.721 17.7767 11.9022 17.5279 11.9022H17.2259C16.9831 11.9022 16.8291 11.7246 16.764 11.3696L15.9911 7.05435H15.9734V11.3478C15.9734 11.7174 15.8223 11.9022 15.5203 11.9022H15.1117C14.8096 11.9022 14.6586 11.7174 14.6586 11.3478Z" fill="#6366F1"/>
<path d="M20.9655 11.3478V4.65217C20.9655 4.28261 21.1165 4.09783 21.4185 4.09783H22.0048C22.3068 4.09783 22.4579 4.28261 22.4579 4.65217V11.3478C22.4579 11.7174 22.3068 11.9022 22.0048 11.9022H21.4185C21.1165 11.9022 20.9655 11.7174 20.9655 11.3478Z" fill="#6366F1"/>
<path d="M23.3425 11.3478V4.65217C23.3425 4.28261 23.4935 4.09783 23.7955 4.09783H26.4694C26.7714 4.09783 26.9225 4.28261 26.9225 4.65217V5.11957C26.9225 5.48913 26.7714 5.67391 26.4694 5.67391H24.826V7.13044H25.9453C26.2473 7.13044 26.3983 7.31522 26.3983 7.68478V8.1087C26.3983 8.47826 26.2473 8.66304 25.9453 8.66304H24.826V10.3261H26.5494C26.8514 10.3261 27.0024 10.5109 27.0024 10.8804V11.3478C27.0024 11.7174 26.8514 11.9022 26.5494 11.9022H23.7955C23.4935 11.9022 23.3425 11.7174 23.3425 11.3478Z" fill="#6366F1"/>
<path d="M27.4763 10.413C27.4467 10.3043 27.429 10.2174 27.423 10.1522C27.423 10.0797 27.4497 10.0072 27.503 9.93478C27.5622 9.86232 27.657 9.81159 27.7873 9.78261L28.3203 9.66304C28.3736 9.64855 28.4209 9.6413 28.4624 9.6413C28.5098 9.6413 28.5483 9.64855 28.5779 9.66304C28.6134 9.67754 28.6401 9.69203 28.6578 9.70652C28.6815 9.71377 28.7022 9.73913 28.72 9.78261C28.7437 9.81884 28.7585 9.84783 28.7644 9.86957C28.7763 9.88406 28.7911 9.92029 28.8088 9.97826C28.8325 10.0362 28.8473 10.0761 28.8533 10.0978C28.9776 10.3949 29.179 10.5435 29.4573 10.5435C29.6291 10.5435 29.7683 10.4891 29.8749 10.3804C29.9815 10.2717 30.0348 10.1159 30.0348 9.91304C30.0348 9.68841 29.9696 9.48551 29.8393 9.30435C29.715 9.12319 29.558 8.97464 29.3685 8.8587C29.1849 8.73551 28.9806 8.59058 28.7555 8.42391C28.5364 8.25 28.3321 8.07246 28.1426 7.8913C27.959 7.71015 27.8021 7.46014 27.6718 7.1413C27.5474 6.82246 27.4852 6.45652 27.4852 6.04348C27.4852 5.42754 27.654 4.93478 27.9916 4.56522C28.3351 4.18841 28.794 4 29.3685 4C30.2983 4 30.9142 4.48551 31.2162 5.45652C31.2814 5.57971 31.2962 5.70652 31.2607 5.83696C31.231 5.96015 31.1244 6.04348 30.9409 6.08696L30.4612 6.20652C30.4079 6.22101 30.3605 6.22826 30.319 6.22826C30.2835 6.22826 30.248 6.22464 30.2124 6.21739C30.1828 6.2029 30.1562 6.18841 30.1325 6.17391C30.1147 6.15942 30.094 6.13768 30.0703 6.1087C30.0466 6.07246 30.0288 6.04348 30.017 6.02174C30.0051 6 29.9874 5.96377 29.9637 5.91304C29.94 5.86232 29.9193 5.82246 29.9015 5.79348C29.7712 5.56159 29.6024 5.44565 29.3951 5.44565C29.2471 5.44565 29.1287 5.49638 29.0398 5.59783C28.9569 5.69203 28.9154 5.81884 28.9154 5.97826C28.9154 6.22464 29.0013 6.44565 29.1731 6.6413C29.3507 6.83696 29.5639 7.01449 29.8127 7.17391C30.0614 7.33333 30.3101 7.51087 30.5589 7.70652C30.8076 7.90217 31.0178 8.17754 31.1896 8.53261C31.3673 8.88043 31.4561 9.2971 31.4561 9.78261C31.4561 10.4783 31.2695 11.0217 30.8964 11.413C30.5293 11.8043 30.0288 12 29.3951 12C28.8681 12 28.4506 11.8732 28.1426 11.6196C27.8346 11.3587 27.6126 10.9565 27.4763 10.413Z" fill="#6366F1"/>
<path d="M33.9175 11.3478V4.65217C33.9175 4.28261 34.0685 4.09783 34.3705 4.09783H35.8185C36.5647 4.09783 37.1214 4.30072 37.4886 4.70652C37.8617 5.10507 38.0482 5.72826 38.0482 6.57609C38.0482 7.39493 37.8558 8.02174 37.4708 8.45652C37.0918 8.8913 36.5529 9.1087 35.8541 9.1087H35.401V11.3478C35.401 11.7174 35.25 11.9022 34.9479 11.9022H34.3705C34.0685 11.9022 33.9175 11.7174 33.9175 11.3478ZM35.401 7.57609H35.8985C36.0821 7.57609 36.2301 7.49638 36.3426 7.33696C36.4611 7.17754 36.5203 6.92391 36.5203 6.57609C36.5203 5.97464 36.3101 5.67391 35.8896 5.67391H35.401V7.57609Z" fill="#6366F1"/>
<path d="M38.6715 11.3478V4.65217C38.6715 4.28261 38.8225 4.09783 39.1245 4.09783H39.7108C40.0129 4.09783 40.1639 4.28261 40.1639 4.65217V11.3478C40.1639 11.7174 40.0129 11.9022 39.7108 11.9022H39.1245C38.8225 11.9022 38.6715 11.7174 38.6715 11.3478Z" fill="#6366F1"/>
<path d="M40.7553 11.3478V10.6522C40.7553 10.4203 40.8293 10.1486 40.9774 9.83696L42.9584 5.67391H41.3683C41.0662 5.67391 40.9152 5.48913 40.9152 5.11957V4.65217C40.9152 4.28261 41.0662 4.09783 41.3683 4.09783H44.3087C44.6107 4.09783 44.7617 4.28261 44.7617 4.65217V5.29348C44.7617 5.51812 44.6847 5.78986 44.5307 6.1087L42.4876 10.3261H44.3264C44.6285 10.3261 44.7795 10.5109 44.7795 10.8804V11.3478C44.7795 11.7174 44.6285 11.9022 44.3264 11.9022H41.2084C40.9063 11.9022 40.7553 11.7174 40.7553 11.3478Z" fill="#6366F1"/>
<path d="M45.1276 11.3478V10.6522C45.1276 10.4203 45.2016 10.1486 45.3497 9.83696L47.3307 5.67391H45.7405C45.4385 5.67391 45.2875 5.48913 45.2875 5.11957V4.65217C45.2875 4.28261 45.4385 4.09783 45.7405 4.09783H48.6809C48.983 4.09783 49.134 4.28261 49.134 4.65217V5.29348C49.134 5.51812 49.057 5.78986 48.903 6.1087L46.8599 10.3261H48.6987C49.0007 10.3261 49.1518 10.5109 49.1518 10.8804V11.3478C49.1518 11.7174 49.0007 11.9022 48.6987 11.9022H45.5806C45.2786 11.9022 45.1276 11.7174 45.1276 11.3478Z" fill="#6366F1"/>
<path d="M49.4643 11.3587L50.6369 4.6413C50.6962 4.27899 50.8798 4.09783 51.1877 4.09783H52.2182C52.5261 4.09783 52.7097 4.27536 52.769 4.63044L53.9771 11.3696C54.0185 11.587 54.0037 11.7319 53.9327 11.8043C53.8675 11.8696 53.7639 11.9022 53.6218 11.9022H52.9111C52.7808 11.9022 52.6801 11.8659 52.6091 11.7935C52.5439 11.7138 52.4965 11.5688 52.4669 11.3587L52.307 10.2174H51.0989L50.9479 11.3587C50.9242 11.5616 50.8768 11.7029 50.8057 11.7826C50.7406 11.8623 50.6429 11.9022 50.5126 11.9022H49.8197C49.7249 11.9022 49.6509 11.8949 49.5976 11.8804C49.5443 11.8587 49.4999 11.808 49.4643 11.7283C49.4347 11.6413 49.4347 11.5181 49.4643 11.3587ZM51.3032 8.67391H52.0938L51.7029 5.86957H51.6763L51.3032 8.67391Z" fill="#6366F1"/>
</svg>
