<svg width="106" height="40" viewBox="0 0 106 40" fill="none" xmlns="http://www.w3.org/2000/svg">
<mask id="mask0_1382_13064" style="mask-type:alpha" maskUnits="userSpaceOnUse" x="8" y="8" width="90" height="24">
<g clip-path="url(#clip0_1382_13064)">
<path d="M61.826 8.55576C61.4331 8.9412 61.1199 9.26127 60.7935 9.56513C60.4497 9.88549 60.1117 10.1977 60.3906 10.6981C60.9261 10.8938 61.454 11.0616 61.9603 11.2848C62.146 11.3668 62.2756 11.587 62.4419 11.7292C62.5038 11.7819 62.5963 11.8091 62.6774 11.8173C62.7744 11.827 62.8804 11.7763 62.9722 11.7987C63.6555 11.9656 64.3363 12.1441 65.0647 12.331C65.0647 12.4047 65.0647 12.5831 65.0647 12.7943C65.3482 12.7568 65.6113 12.7221 65.8741 12.6874C65.895 12.7292 65.9157 12.7711 65.9364 12.8129C65.6822 12.9932 65.428 13.1736 65.2211 13.3203C65.5045 13.3842 65.7716 13.4448 66.0389 13.5044C66.083 13.5142 66.1403 13.5414 66.1706 13.5227C66.6113 13.2508 67.0522 12.9785 67.4848 12.6928C67.7189 12.5383 67.9378 12.358 68.1511 12.1374C67.4067 12.2411 66.8121 12.8747 66.0487 12.92C66.0276 12.8833 66.0067 12.8466 65.9855 12.8099C66.1813 12.6692 66.3636 12.4981 66.5751 12.3934C67.2399 12.0641 67.9234 11.777 68.5843 11.4396C68.984 11.2356 69.3551 10.9687 69.7883 10.769C69.7284 11.3806 69.2251 11.7023 68.9415 12.1605C68.6384 12.6504 68.2666 13.0923 67.9014 13.5869C68.5889 14.4111 69.3078 15.2726 70.0267 16.1343C69.9996 16.1802 69.9728 16.2261 69.946 16.272C69.434 15.9943 68.9304 15.6968 68.4073 15.4457C68.0222 15.2609 67.6158 15.1207 67.2107 14.9892C66.5472 14.7739 65.887 14.5029 65.2065 14.4083C64.7684 14.3475 64.297 14.5604 63.8273 14.6533C64.0262 15.2903 64.0214 15.2781 63.509 15.5105C62.5089 15.9637 61.5122 16.4254 60.5199 16.897C60.0967 17.0982 59.7801 17.3996 59.8747 17.9566C59.1585 18.068 58.5741 17.7601 58.6101 17.4353C57.5062 16.8383 56.3564 17.1248 55.1553 17.1321C55.3295 17.4026 55.476 17.63 55.655 17.9081C54.7504 18.0613 53.9244 18.0102 53.245 17.4167C52.6912 16.9331 52.0388 16.957 51.4124 16.8107C50.9661 16.7065 50.5276 16.5659 50.0812 16.4612C49.9236 16.4242 49.737 16.4921 49.5926 16.4322C48.7721 16.0925 47.9599 15.7292 47.146 15.3717C47.1098 15.3558 47.0823 15.3176 47.0501 15.2909C46.5416 14.8695 46.5473 14.5834 47.0721 14.1986C47.0655 14.1733 47.0658 14.1316 47.0518 14.1253C46.2579 13.7683 46.4951 13.2833 47.0378 12.9273C47.5792 12.572 48.0766 12.1411 48.5977 11.7501C50.2417 10.5168 52.0809 9.90585 54.0823 9.84389C54.777 9.82234 55.4814 9.78816 56.1654 9.88609C56.6259 9.95191 56.9521 9.85443 57.3594 9.63363C58.1596 9.1999 58.9986 8.87003 59.9203 8.71654C60.4573 8.62724 60.9798 8.45576 61.5351 8.51059C61.5988 8.51698 61.6622 8.53021 61.826 8.55576ZM53.5965 10.8396C53.4417 10.912 53.301 11.0142 53.148 11.043C51.9413 11.2711 50.8285 11.7623 49.7564 12.3762C49.6164 12.4564 49.4548 12.4938 49.2568 12.5686C49.252 12.6213 49.2416 12.7399 49.2291 12.8794C49.3072 12.8653 49.3606 12.8611 49.411 12.8457C51.7532 12.1332 54.1392 11.7972 56.5579 12.1751C57.9551 12.3934 59.3183 12.8484 60.7083 13.1344C61.3705 13.2707 62.0584 13.2872 62.7361 13.306C63.0208 13.314 63.3089 13.1879 63.5956 13.1227C63.0204 12.9439 62.4629 12.8818 61.9411 12.7024C61.0622 12.4004 60.2077 12.0185 59.3397 11.6795C57.5842 10.9943 55.7902 10.6197 53.9113 10.9264C53.8097 10.9432 53.695 10.8687 53.5965 10.8396ZM8 15.5626H8.73355V11.5114H8V10.8956H10.1766V11.5114H9.45104V15.5626H10.1766V16.1784H8V15.5626ZM12.077 16.0048V14.773H12.7292V15.5279C12.974 15.5973 13.3489 15.6666 13.7402 15.6666C14.425 15.6666 14.914 15.4237 14.914 14.8686C14.914 13.5154 12.1585 14.1487 12.1585 12.2489C12.1585 11.2773 12.8843 10.7914 13.9358 10.7914C14.4658 10.7914 15.0445 10.9128 15.4521 11.0604V12.2749H14.7917V11.5114C14.58 11.4592 14.262 11.4075 13.9603 11.4075C13.2837 11.4075 12.8516 11.6849 12.8516 12.1796C12.8516 13.4458 15.607 12.8562 15.607 14.8164C15.607 15.8662 14.8082 16.2827 13.781 16.2827C13.1777 16.2826 12.5418 16.1436 12.077 16.0048ZM17.4836 15.5626H18.2172V11.5114H17.4836V10.8956H19.7662V11.5114H18.9348V15.5626H20.8587V14.617H21.527V16.1784H17.4836V15.5626ZM22.882 15.5626H23.5179L25.0587 11.5114H24.3493V10.8956H26.0939L27.8713 15.5626H28.5152V16.1784H26.3875V15.5626H27.1292L26.746 14.5476H24.6021L24.2269 15.5626H24.9607V16.1784H22.882V15.5626ZM26.526 13.9317L25.6781 11.6329L24.8304 13.9317H26.526ZM29.9843 15.5626H30.718V11.5114H29.9843V10.8956H31.4517L34.134 14.9466V11.5114H33.4084V10.8956H35.5445V11.5114H34.8185V16.1784H34.1746L31.3946 12.006V15.5628H32.12V16.1785H29.9843V15.5626ZM37.3069 15.5626H38.0407V11.5114H37.3069V10.8956H39.606C41.2203 10.8956 42.2392 11.8672 42.2392 13.5412C42.2392 15.2068 41.2203 16.1784 39.606 16.1784H37.3069V15.5626ZM39.606 15.5626C40.8207 15.5626 41.5053 14.8163 41.5053 13.5412C41.5053 12.2573 40.8207 11.5114 39.606 11.5114H38.758V15.5626H39.606ZM74.1969 15.5626H74.9304V11.5114H74.1969V10.8956H76.4466C77.6454 10.8956 78.4277 11.5461 78.4277 12.5696C78.4277 13.5934 77.6454 14.2439 76.4466 14.2439H75.6479V15.5626H76.5284V16.1784H74.1969V15.5626ZM75.6479 13.6282H76.4632C77.3436 13.6282 77.7023 13.1597 77.7023 12.5696C77.7023 11.9799 77.3436 11.5114 76.4632 11.5114H75.6479V13.6282ZM80.1577 13.5412C80.1577 11.9451 81.1929 10.7914 82.7096 10.7914C84.2258 10.7914 85.2611 11.9451 85.2611 13.5412C85.2611 15.1374 84.2258 16.2826 82.7096 16.2826C81.1929 16.2826 80.1577 15.1374 80.1577 13.5412ZM84.5272 13.5412C84.5272 12.2573 83.7776 11.4335 82.7096 11.4335C81.6495 11.4335 80.8994 12.266 80.8994 13.5412C80.8994 14.8252 81.6414 15.6405 82.7096 15.6405C83.7693 15.6405 84.5272 14.8164 84.5272 13.5412ZM87.0239 15.5626H87.7577V11.5114H87.0239V10.8956H89.1843V11.5114H88.475V15.5626H89.2495V16.1784H87.0239V15.5626ZM88.8014 13.5588V13.5066L90.6029 11.5027H89.959V10.8955H92.0458V11.5112H91.4179L89.6655 13.4891L91.3693 15.5626H92.1191V16.1784H90.929L88.8014 13.5588ZM93.7594 15.5626H94.4933V11.5114H93.7594V10.8956H97.7788V12.3788H97.1183V11.5114H95.2107V13.2117H97.2653V13.8274H95.2107V15.5626H97.1345V14.6692H97.8032V16.1784H93.7594V15.5626ZM95.2268 10.0975L96.5396 8.70941L97.0126 9.34269L95.4551 10.4009L95.2268 10.0975Z" fill="black"/>
<path d="M26.9838 26.9243C26.9838 26.9621 26.9798 26.9913 26.9715 27.0118C26.9633 27.0323 26.9441 27.0423 26.914 27.0423C26.8728 27.0423 26.8412 27.0107 26.8194 26.9468C26.7425 26.7381 26.6945 26.6221 26.6753 26.5989C26.6315 26.5499 26.5142 26.5099 26.3236 26.4794C26.1328 26.449 25.9361 26.4338 25.7332 26.4338C25.6122 26.4338 25.5135 26.4384 25.4368 26.4472C25.3599 26.456 25.3106 26.4719 25.2888 26.4952C25.2475 26.5364 25.2091 26.6604 25.1735 26.8674C25.1379 27.0748 25.12 27.2396 25.12 27.3621V27.7606C25.12 27.793 25.1268 27.8191 25.1405 27.8393C25.1543 27.8598 25.1749 27.8701 25.2022 27.8701H25.7002C25.8098 27.8701 25.9155 27.8335 26.0171 27.7604C26.0582 27.7315 26.1128 27.6585 26.1815 27.5416C26.2419 27.4396 26.2859 27.3882 26.3131 27.3882C26.3269 27.3882 26.3399 27.3965 26.3522 27.4126C26.3645 27.4286 26.3706 27.4484 26.3706 27.4716C26.3706 27.4833 26.368 27.5066 26.3624 27.5416L26.2678 28.496C26.2678 28.5428 26.2652 28.5771 26.2596 28.5991C26.254 28.6208 26.2376 28.6332 26.2103 28.6359C26.1691 28.6389 26.1307 28.5747 26.0951 28.4433C26.0594 28.312 26.0169 28.2276 25.9675 28.1896C25.8687 28.1165 25.7481 28.0799 25.6054 28.0799H25.2515C25.1831 28.0799 25.1267 28.1123 25.0828 28.1766C25.0388 28.241 25.0066 28.3624 24.9861 28.5408C24.9655 28.7193 24.9553 28.9153 24.9553 29.1293V29.3179C24.9553 29.3587 24.9587 29.3933 24.9655 29.4211C24.9724 29.4489 24.9861 29.4774 25.0067 29.5067C25.0274 29.5359 25.0527 29.5591 25.083 29.5767C25.0939 29.5827 25.1268 29.5971 25.1817 29.6208C25.2064 29.6322 25.2441 29.6425 25.295 29.6512C25.3458 29.66 25.3814 29.6688 25.4019 29.6775C25.4225 29.6866 25.437 29.6939 25.4452 29.6997C25.4673 29.7172 25.4782 29.7423 25.4782 29.7743C25.4782 29.8184 25.4576 29.8481 25.4164 29.8645C25.3753 29.8805 25.3163 29.8884 25.2394 29.8884C25.1982 29.8884 25.1222 29.8827 25.0111 29.8708C24.9 29.8591 24.8212 29.8533 24.7745 29.8533C24.717 29.8533 24.6134 29.8563 24.4639 29.8621C24.3142 29.8677 24.2356 29.8708 24.2274 29.8708C24.0764 29.8708 23.9914 29.8564 23.9723 29.827C23.964 29.8126 23.96 29.7977 23.96 29.7832C23.96 29.7539 23.9764 29.7284 24.0093 29.7067C24.0422 29.6845 24.0882 29.664 24.1471 29.645C24.2061 29.6264 24.2548 29.5685 24.2931 29.4722C24.3232 29.3964 24.3424 29.313 24.3507 29.2226L24.6182 26.7356C24.6209 26.7181 24.6223 26.6949 24.6223 26.6656C24.6223 26.5986 24.6044 26.5447 24.5688 26.5035C24.5331 26.4628 24.4644 26.4262 24.363 26.3943C24.3137 26.3795 24.2643 26.365 24.215 26.3502C24.1736 26.3326 24.1531 26.3124 24.1531 26.289C24.1531 26.2539 24.1799 26.2322 24.2334 26.2234C24.2869 26.2147 24.3437 26.2101 24.4042 26.2101C24.4755 26.2101 24.5812 26.2139 24.721 26.2211C24.8608 26.2282 24.9419 26.2321 24.9639 26.2321H26.3134C26.404 26.2321 26.4924 26.2298 26.579 26.2248C26.6654 26.2199 26.7498 26.2148 26.832 26.2099C26.9004 26.2099 26.943 26.2129 26.9595 26.2187C26.976 26.2248 26.9842 26.2438 26.9842 26.2757V26.9243H26.9838Z" fill="black"/>
<path d="M28.9501 27.8438L28.8679 28.1547C28.857 28.2015 28.8349 28.2247 28.8021 28.2247C28.7883 28.2247 28.7746 28.2201 28.7609 28.2113C28.7471 28.2025 28.7348 28.1911 28.7239 28.1762C28.6308 28.0568 28.5813 27.9939 28.5759 27.9883C28.5429 27.9559 28.5142 27.94 28.4894 27.94C28.4099 27.94 28.3344 28.0306 28.2632 28.2113C28.2057 28.3574 28.1604 28.5355 28.1275 28.7456L27.9648 29.7875C27.9648 29.8088 27.9587 29.829 27.9464 29.8477C27.9341 29.866 27.9211 29.8755 27.9074 29.8755H27.4809C27.4701 29.8755 27.4618 29.874 27.4562 29.8709C27.448 29.8621 27.4427 29.8565 27.4399 29.8534C27.4371 29.8477 27.4358 29.8373 27.4358 29.8226C27.4358 29.8051 27.4358 29.7936 27.4358 29.7875L27.6126 28.5921C27.6209 28.5397 27.6249 28.4844 27.6249 28.4259C27.6249 28.3296 27.6133 28.2486 27.59 28.1831C27.5665 28.1173 27.5276 28.0799 27.4727 28.0712C27.4096 28.0597 27.3452 28.1309 27.2792 28.2857C27.249 28.3557 27.2188 28.3835 27.1887 28.3691C27.1475 28.3486 27.127 28.3106 27.127 28.255C27.127 28.2143 27.1364 28.1682 27.1554 28.1173C27.1746 28.0663 27.195 28.0187 27.2166 27.9749C27.2792 27.8554 27.3567 27.7603 27.4488 27.6902C27.5411 27.6202 27.6376 27.5851 27.7382 27.5851C27.8062 27.5851 27.8591 27.6217 27.8971 27.6948C27.9243 27.7472 27.9473 27.8216 27.9663 27.9178L28.0161 28.1896L28.1116 28.0321C28.1614 27.9473 28.2403 27.8597 28.3481 27.7691C28.4974 27.6465 28.64 27.5853 28.7756 27.5853C28.8446 27.5853 28.893 27.6013 28.9208 27.6336C28.9483 27.6655 28.9623 27.7063 28.9623 27.7562C28.9626 27.7883 28.9584 27.8175 28.9501 27.8438Z" fill="black"/>
<path d="M30.9933 28.041C30.9933 28.1692 30.9274 28.2948 30.7957 28.4174C30.6804 28.5254 30.5393 28.6087 30.3719 28.667C30.0647 28.772 29.8396 28.8245 29.697 28.8245L29.6887 28.9508C29.6887 29.1541 29.7436 29.3077 29.8534 29.412C29.963 29.5166 30.1015 29.5688 30.269 29.5688C30.3812 29.5688 30.4861 29.5466 30.5836 29.5018C30.6813 29.4572 30.7667 29.3906 30.8409 29.3012C30.8738 29.2609 30.9067 29.2521 30.9396 29.2753C30.9588 29.287 30.9684 29.3073 30.9684 29.3362C30.9684 29.348 30.9643 29.3609 30.9562 29.3755C30.8764 29.5147 30.7415 29.6351 30.5507 29.7362C30.3601 29.8379 30.1798 29.8884 30.0097 29.8884C29.7242 29.8884 29.5088 29.8192 29.3635 29.681C29.2181 29.5425 29.1455 29.3495 29.1455 29.1018C29.1455 28.9358 29.1673 28.7783 29.2113 28.6298C29.2661 28.4465 29.3497 28.2832 29.4624 28.1404C29.5858 27.9802 29.7324 27.8547 29.9027 27.7645C30.0862 27.6655 30.2866 27.616 30.5034 27.616C30.6734 27.616 30.801 27.6613 30.8858 27.7515C30.9575 27.8279 30.9933 27.9242 30.9933 28.041ZM30.5075 28.0452C30.5075 27.9781 30.4924 27.9242 30.4624 27.883C30.424 27.8306 30.3706 27.8043 30.3019 27.8043C30.2306 27.8043 30.1584 27.8255 30.0858 27.8682C30.0132 27.9108 29.9541 27.9694 29.9088 28.0444C29.8636 28.119 29.8218 28.2122 29.7833 28.3238C29.7284 28.4912 29.7051 28.6026 29.7133 28.6582C29.7215 28.6582 29.7394 28.6582 29.7668 28.6582C29.8492 28.6582 29.9426 28.6377 30.0466 28.597C30.1811 28.5446 30.2908 28.4714 30.3758 28.3781C30.417 28.3343 30.4493 28.283 30.4726 28.2248C30.4959 28.1665 30.5075 28.1064 30.5075 28.0452Z" fill="black"/>
<path d="M32.8604 27.8392C32.8741 27.8685 32.8809 27.8994 32.8809 27.9314C32.8809 27.9899 32.8623 28.0418 32.8253 28.0867C32.7882 28.132 32.7411 28.1547 32.6835 28.1547C32.6395 28.1547 32.5928 28.1372 32.5433 28.1022C32.5161 28.0817 32.4803 28.0242 32.4365 27.9291C32.3925 27.8343 32.348 27.7777 32.3026 27.7587C32.2575 27.7397 32.2156 27.7302 32.1772 27.7302C32.1114 27.7302 32.0571 27.7499 32.0146 27.7892C31.9721 27.8287 31.9509 27.8923 31.9509 27.9803C31.9509 28.0095 31.9535 28.0397 31.9592 28.07C31.9644 28.1008 31.981 28.1324 32.0085 28.1644C32.0277 28.188 32.0619 28.2184 32.1112 28.2565L32.4611 28.5461C32.505 28.5815 32.5427 28.615 32.5743 28.647C32.6057 28.6794 32.6338 28.7174 32.6585 28.7611C32.6999 28.8311 32.7319 28.9054 32.7553 28.9826C32.7784 29.0602 32.7904 29.1341 32.7904 29.2042C32.7904 29.2921 32.7745 29.3739 32.7431 29.45C32.7117 29.526 32.6615 29.596 32.5928 29.6604C32.4995 29.7513 32.4029 29.8141 32.3026 29.8491C32.2025 29.884 32.0826 29.9019 31.9426 29.9019C31.7617 29.9019 31.6066 29.8666 31.4776 29.7966C31.3212 29.7121 31.2432 29.5911 31.2432 29.4332C31.2484 29.3574 31.273 29.3003 31.3171 29.2627C31.3609 29.2247 31.4117 29.2057 31.4693 29.2057C31.5406 29.2057 31.5914 29.2293 31.6217 29.2756C31.638 29.302 31.6668 29.3749 31.708 29.4948C31.7684 29.6699 31.8576 29.7574 31.9756 29.7574C32.0935 29.7574 32.1862 29.7243 32.2533 29.6584C32.3205 29.5926 32.3543 29.5115 32.3543 29.4152C32.3543 29.3479 32.3364 29.2782 32.3007 29.2066C32.2649 29.1349 32.2128 29.07 32.1443 29.0113L31.7492 28.6647C31.5957 28.5303 31.5188 28.378 31.5188 28.2083C31.5188 28.074 31.5667 27.9504 31.6629 27.8376C31.7588 27.725 31.8822 27.6496 32.0331 27.6116C32.1262 27.5884 32.2156 27.5765 32.3004 27.5765C32.4293 27.5765 32.5446 27.5994 32.646 27.6443C32.7479 27.6898 32.8192 27.7548 32.8604 27.8392Z" fill="black"/>
<path d="M35.7008 29.2188C35.728 29.239 35.742 29.2627 35.742 29.2888C35.742 29.3151 35.7308 29.3471 35.7088 29.3851C35.6868 29.4231 35.6663 29.4592 35.6471 29.4948C35.5893 29.5998 35.5013 29.6915 35.3815 29.7702C35.2623 29.849 35.1437 29.8887 35.0257 29.8887C34.8995 29.8887 34.8077 29.8404 34.7501 29.7441C34.7034 29.6653 34.6801 29.5561 34.6801 29.4157C34.6801 29.3662 34.6814 29.3297 34.684 29.3065L34.7499 28.4962C34.7553 28.4612 34.7601 28.4277 34.7643 28.3958C34.7684 28.3634 34.7706 28.3269 34.7706 28.2861C34.7706 28.1693 34.7444 28.0897 34.6921 28.0475C34.64 28.0053 34.5713 27.9839 34.4863 27.9839C34.3624 27.9839 34.2401 28.0673 34.1193 28.2335C33.9981 28.3998 33.9255 28.5821 33.9006 28.7808L33.767 29.7612C33.767 29.7966 33.7524 29.8258 33.7223 29.8492C33.7057 29.864 33.6813 29.8713 33.6486 29.8713H33.342C33.3119 29.8713 33.2895 29.864 33.2746 29.8492C33.2594 29.8347 33.252 29.813 33.252 29.7836C33.252 29.7604 33.252 29.7429 33.252 29.7312L33.647 26.5303C33.6497 26.5159 33.6512 26.4937 33.6512 26.4647C33.6512 26.4442 33.6455 26.4172 33.6346 26.3836C33.6237 26.3502 33.5771 26.3329 33.4948 26.3329C33.4482 26.3359 33.4126 26.3375 33.3878 26.3375C33.344 26.3375 33.3104 26.3326 33.2871 26.3224C33.2637 26.3124 33.252 26.2927 33.252 26.2641C33.252 26.2063 33.3084 26.1686 33.4209 26.1515C33.5171 26.1427 33.6146 26.1329 33.7133 26.121C33.8149 26.1039 33.8945 26.0894 33.9523 26.0777C34.0567 26.0575 34.1226 26.0476 34.1501 26.0476C34.1749 26.0476 34.1897 26.0518 34.1954 26.0603C34.2144 26.0832 34.2214 26.1158 34.2159 26.1585L33.9523 28.1944C34.048 28.0628 34.1289 27.965 34.195 27.9007C34.3978 27.7054 34.6007 27.6077 34.8035 27.6077C34.949 27.6077 35.068 27.6628 35.1613 27.7739C35.2437 27.8732 35.2847 27.987 35.2847 28.1153L35.2437 28.9517C35.2437 28.9722 35.2416 29.0168 35.2374 29.0852C35.2333 29.1538 35.2313 29.194 35.2313 29.2054C35.2313 29.2873 35.2381 29.3515 35.2518 29.398C35.2653 29.4448 35.2915 29.468 35.3299 29.468C35.3765 29.468 35.46 29.4025 35.5808 29.2713C35.6308 29.2188 35.6704 29.2013 35.7008 29.2188Z" fill="black"/>
<path d="M45.0544 27.1783C45.0544 27.5741 44.9035 27.864 44.6017 28.0486C44.3769 28.1863 44.1039 28.2553 43.783 28.2553C43.6267 28.2553 43.5196 28.2431 43.4618 28.2184C43.4043 28.1937 43.3633 28.1677 43.3384 28.1416C43.3138 28.1153 43.3068 28.0906 43.3179 28.0674C43.3234 28.0438 43.3428 28.0324 43.3755 28.0324C43.4193 28.038 43.4522 28.0412 43.4742 28.0412L43.5935 28.0453C43.8486 28.0453 44.0449 27.9883 44.182 27.8737C44.3301 27.7504 44.4042 27.5685 44.4042 27.3279C44.4042 27.0725 44.337 26.8518 44.2025 26.6653C44.0682 26.4789 43.8953 26.386 43.6842 26.386C43.6155 26.386 43.5593 26.3909 43.5155 26.4012C43.4716 26.4114 43.4304 26.4312 43.392 26.4606C43.3096 26.5249 43.2604 26.6402 43.2436 26.8073L42.9887 29.1774C42.9858 29.1952 42.9845 29.2128 42.9845 29.2303C42.9845 29.2535 42.9845 29.2698 42.9845 29.2786C42.9845 29.3897 43.0079 29.4761 43.0545 29.5374C43.1121 29.6135 43.2026 29.6611 43.3262 29.6801C43.4496 29.6991 43.5113 29.7349 43.5113 29.7878C43.5113 29.8285 43.4871 29.8578 43.4391 29.8753C43.3912 29.8929 43.3288 29.9019 43.2518 29.9019C43.1943 29.9019 43.0983 29.8958 42.964 29.8844C42.8295 29.8727 42.732 29.8666 42.6719 29.8666C42.5897 29.8666 42.5064 29.868 42.4229 29.8712C42.3391 29.8741 42.2574 29.8768 42.178 29.8799C42.1093 29.8799 42.06 29.8777 42.0297 29.8734C41.9996 29.8688 41.9805 29.8593 41.9722 29.8449C41.9639 29.8305 41.96 29.8156 41.96 29.801C41.96 29.7747 41.9778 29.7493 42.0134 29.7245C42.0489 29.6994 42.0943 29.6792 42.1492 29.6629C42.2039 29.6468 42.2534 29.5936 42.2975 29.5034C42.333 29.4303 42.3566 29.3542 42.3675 29.2755L42.635 26.8456C42.6376 26.8251 42.6389 26.7973 42.6389 26.7622C42.6389 26.6572 42.6121 26.5753 42.5587 26.5172C42.5053 26.4587 42.4346 26.4194 42.3468 26.3988C42.3084 26.39 42.2715 26.3813 42.2358 26.3725C42.1754 26.352 42.1453 26.3257 42.1453 26.2937C42.1453 26.2499 42.1686 26.2199 42.2153 26.204C42.2617 26.1879 42.3306 26.1801 42.4211 26.1801C42.4623 26.1801 42.5857 26.1873 42.7913 26.2017C42.8735 26.2078 42.9464 26.2105 43.0094 26.2105C43.1082 26.2105 43.1877 26.2086 43.2479 26.2044C43.4895 26.1881 43.6158 26.1801 43.6267 26.1801C44.0765 26.1801 44.4194 26.2532 44.6554 26.4C44.9214 26.5671 45.0544 26.8263 45.0544 27.1783Z" fill="black"/>
<path d="M47.3 29.2055C47.3273 29.2172 47.3413 29.2389 47.3413 29.2713C47.3413 29.3003 47.3314 29.3368 47.3125 29.3805C47.3096 29.3866 47.2891 29.4258 47.2508 29.499C47.1902 29.6101 47.1053 29.7003 46.9954 29.7703C46.8858 29.8403 46.7787 29.8756 46.6745 29.8756C46.5923 29.8756 46.5153 29.8266 46.4442 29.7287C46.3729 29.6309 46.3372 29.5266 46.3372 29.4155C46.2192 29.5585 46.1054 29.6651 45.9957 29.7351C45.8501 29.8287 45.6979 29.8755 45.5387 29.8755C45.3577 29.8755 45.2171 29.8009 45.117 29.6521C45.0167 29.5034 44.9668 29.3165 44.9668 29.0915C44.9668 28.937 44.9997 28.7703 45.0656 28.5923C45.1312 28.4145 45.2217 28.2391 45.337 28.0671C45.4467 27.918 45.562 27.8056 45.6828 27.73C45.8226 27.6425 45.9748 27.5986 46.1394 27.5986C46.1669 27.5986 46.1915 27.5986 46.2135 27.5986C46.2356 27.5986 46.2696 27.6035 46.3162 27.6138C46.3629 27.6241 46.4226 27.6496 46.4953 27.6903C46.5681 27.7315 46.6222 27.7515 46.6579 27.7515C46.688 27.7515 46.719 27.742 46.7504 27.723C46.782 27.704 46.8088 27.6755 46.8308 27.6374L46.9418 27.4836C46.9638 27.4544 46.9878 27.4296 47.0138 27.409C47.0397 27.3885 47.0611 27.3844 47.0774 27.3957C47.0968 27.4074 47.1064 27.431 47.1064 27.4661C47.1036 27.4951 47.1023 27.5171 47.1023 27.5316L46.8801 28.9031C46.8744 28.9321 46.867 28.9765 46.8572 29.0367C46.8476 29.0964 46.843 29.1539 46.843 29.2095C46.843 29.2799 46.8526 29.3382 46.8718 29.385C46.891 29.4318 46.9239 29.4581 46.9706 29.4637C47.0336 29.4755 47.0975 29.4325 47.1618 29.3348C47.2266 29.237 47.2728 29.194 47.3 29.2055ZM46.5057 28.0451C46.5057 27.8438 46.4098 27.7429 46.2177 27.7429C46.1189 27.7429 46.0271 27.778 45.9419 27.848C45.868 27.9092 45.798 27.9991 45.7321 28.1174C45.6665 28.2358 45.6142 28.3648 45.5758 28.5048C45.5374 28.6447 45.5182 28.7909 45.5182 28.9428C45.5182 29.1415 45.5463 29.2857 45.6026 29.3762C45.6586 29.4669 45.7528 29.512 45.8843 29.512C46.0328 29.512 46.1407 29.4302 46.2094 29.2666C46.289 29.074 46.3581 28.8655 46.4172 28.6405C46.4763 28.4159 46.5057 28.2175 46.5057 28.0451Z" fill="black"/>
<path d="M49.5498 28.0013C49.5498 28.0687 49.5271 28.1277 49.4817 28.1786C49.4366 28.2296 49.3823 28.2551 49.3193 28.2551C49.2726 28.2551 49.2308 28.243 49.1937 28.2183C49.1566 28.1936 49.1259 28.1589 49.1012 28.1152C49.0299 27.9869 48.9654 27.8987 48.9076 27.8502C48.8501 27.8022 48.7897 27.7779 48.7267 27.7779C48.5784 27.7779 48.4528 27.8692 48.3501 28.0514C48.2474 28.234 48.1957 28.4639 48.1957 28.7413C48.1957 28.9864 48.2485 29.1862 48.3542 29.341C48.46 29.4956 48.6155 29.5731 48.8213 29.5731C49.0051 29.5731 49.1656 29.481 49.3027 29.2972C49.3136 29.2823 49.3289 29.2716 49.3481 29.264C49.367 29.2568 49.3836 29.2592 49.3973 29.2709C49.4165 29.2823 49.4261 29.3014 49.4261 29.3277C49.4261 29.3394 49.4222 29.3528 49.4139 29.3672C49.3315 29.5103 49.2114 29.6305 49.0537 29.7284C48.8961 29.8262 48.7336 29.8754 48.5662 29.8754C48.2919 29.8754 48.0736 29.8023 47.9116 29.6562C47.7498 29.5104 47.6689 29.3045 47.6689 29.039C47.6689 28.6535 47.7828 28.3223 48.0106 28.0449C48.2546 27.7473 48.5618 27.5985 48.9323 27.5985C49.1433 27.5985 49.304 27.6438 49.4139 27.734C49.5044 27.8104 49.5498 27.8994 49.5498 28.0013Z" fill="black"/>
<path d="M51.031 29.1487C51.0447 29.1574 51.0515 29.175 51.0515 29.2011C51.0515 29.2418 51.031 29.2996 50.9898 29.3739C50.9486 29.4485 50.9019 29.5177 50.85 29.5821C50.7731 29.6723 50.681 29.7438 50.5742 29.7964C50.4671 29.8488 50.3658 29.8755 50.2696 29.8755C50.2147 29.8755 50.1625 29.8638 50.1133 29.8402C50.0585 29.8082 50.0199 29.7504 49.9979 29.6674C49.9759 29.584 49.965 29.487 49.965 29.3759C49.965 29.3032 49.9676 29.2488 49.9733 29.2137C49.9787 29.1787 49.9816 29.154 49.9816 29.1396L50.175 28.0356C50.1804 27.9944 50.1833 27.9656 50.1833 27.9481C50.1833 27.9275 50.1804 27.9115 50.175 27.8998C50.1612 27.8617 50.103 27.8347 50.0001 27.8186C49.8974 27.8026 49.8459 27.7684 49.8459 27.716C49.8459 27.6574 49.9077 27.6238 50.0313 27.6151C50.1327 27.6121 50.2354 27.6078 50.3396 27.6017C50.4028 27.5902 50.4761 27.5785 50.5598 27.5666C50.6433 27.5552 50.6991 27.5491 50.7264 27.5491C50.7565 27.5491 50.7759 27.5537 50.7842 27.5625C50.8007 27.58 50.8088 27.5975 50.8088 27.6149C50.8088 27.6206 50.8034 27.6556 50.7925 27.72L50.5413 28.9335C50.5221 29.0298 50.5125 29.1204 50.5125 29.2053C50.5125 29.2665 50.5186 29.3176 50.531 29.3586C50.5432 29.3993 50.5611 29.4237 50.5847 29.431C50.6078 29.4383 50.6235 29.4417 50.6318 29.4417C50.6867 29.4417 50.7532 29.39 50.8313 29.2864C50.9095 29.1828 50.9625 29.1311 50.9898 29.1311C51.0064 29.1313 51.0201 29.1369 51.031 29.1487ZM50.9569 26.6648C50.9569 26.6941 50.9034 26.7672 50.7964 26.8837C50.6893 27.0005 50.6209 27.0592 50.5906 27.0592C50.5685 27.0592 50.5166 26.9975 50.4344 26.8749C50.352 26.7524 50.3121 26.6794 50.315 26.6561C50.3259 26.5978 50.3808 26.516 50.4796 26.411C50.5783 26.306 50.6442 26.2531 50.6771 26.2531C50.7018 26.2531 50.7547 26.3101 50.8356 26.424C50.9165 26.5377 50.9569 26.618 50.9569 26.6648Z" fill="black"/>
<path d="M53.2902 26.3418C53.2739 26.4122 53.2503 26.4673 53.2202 26.5085C53.1901 26.5492 53.1476 26.5697 53.0927 26.5697C53.0323 26.5697 52.9727 26.5324 52.9136 26.4578C52.8546 26.3837 52.7896 26.3463 52.7181 26.3463C52.6742 26.3463 52.6365 26.3734 52.6051 26.4275C52.5735 26.4816 52.5578 26.5389 52.5578 26.6003L52.5127 27.6164H53.0063C53.0312 27.6164 53.0501 27.6236 53.0639 27.638C53.0695 27.6468 53.0735 27.6529 53.0761 27.6556C53.0844 27.6704 53.0885 27.6819 53.0885 27.6906V27.7957C53.0885 27.8045 53.0859 27.8162 53.0802 27.8308C53.0802 27.8337 53.0735 27.8434 53.0597 27.8593C53.046 27.8752 53.0268 27.8832 53.0022 27.8832H52.4673L52.2737 29.6917C52.2464 29.9543 52.2065 30.1556 52.1544 30.2953C52.0831 30.4908 51.9735 30.6263 51.8252 30.7021C51.7868 30.7196 51.7526 30.7337 51.7225 30.7436C51.6924 30.7538 51.6621 30.7592 51.6318 30.7592C51.5934 30.7592 51.5572 30.7511 51.523 30.7352C51.4885 30.7189 51.4563 30.6926 51.4262 30.6565C51.3959 30.6199 51.3732 30.577 51.3582 30.5275C51.3431 30.4776 51.3357 30.4297 51.3357 30.3829C51.3357 30.3479 51.3425 30.3262 51.3562 30.3174C51.3645 30.3117 51.3926 30.303 51.4408 30.2911C51.4888 30.2794 51.5269 30.2648 51.5544 30.2473C51.6233 30.2066 51.6747 30.1483 51.7092 30.0725C51.7436 29.9965 51.7705 29.8553 51.7897 29.6482L51.9909 27.8835L51.5949 27.8831C51.5729 27.8831 51.5509 27.8716 51.5289 27.848C51.5236 27.8392 51.5206 27.8336 51.5206 27.8305C51.5125 27.8129 51.5084 27.8015 51.5084 27.7954V27.6862C51.5084 27.6713 51.5125 27.6584 51.5206 27.6467C51.5234 27.644 51.5276 27.641 51.533 27.6379C51.5413 27.6235 51.5603 27.6162 51.5906 27.6162H52.0062L52.0101 27.5374C52.0404 27.2395 52.1132 26.9578 52.2284 26.6923C52.3956 26.3098 52.6165 26.0894 52.891 26.0312C52.9099 26.0251 52.9339 26.0209 52.9629 26.0178C52.9917 26.0152 53.0157 26.0137 53.0349 26.0137C53.1227 26.0137 53.189 26.0354 53.2344 26.0792C53.2797 26.123 53.3024 26.1801 53.3024 26.2501C53.3026 26.2793 53.2985 26.3098 53.2902 26.3418Z" fill="black"/>
<path d="M54.613 29.1487C54.6268 29.1574 54.6335 29.175 54.6335 29.2011C54.6335 29.2418 54.613 29.2996 54.5718 29.3739C54.5306 29.4485 54.4839 29.5177 54.4318 29.5821C54.3551 29.6723 54.2631 29.7438 54.1562 29.7964C54.0492 29.849 53.9476 29.8755 53.8516 29.8755C53.7967 29.8755 53.7446 29.8638 53.6953 29.8402C53.6403 29.8082 53.602 29.7504 53.58 29.6674C53.5579 29.584 53.547 29.487 53.547 29.3759C53.547 29.3032 53.5496 29.2488 53.5553 29.2137C53.5608 29.1787 53.5636 29.154 53.5636 29.1396L53.757 28.0356C53.7624 27.9944 53.7653 27.9656 53.7653 27.9481C53.7653 27.9275 53.7624 27.9115 53.757 27.8998C53.7433 27.8617 53.685 27.8347 53.5821 27.8186C53.4794 27.8026 53.428 27.7684 53.428 27.716C53.428 27.6574 53.4897 27.6238 53.6133 27.6151C53.7145 27.6121 53.8174 27.6078 53.9216 27.6017C53.9849 27.5902 54.0581 27.5785 54.1418 27.5666C54.2253 27.5552 54.2812 27.5491 54.3084 27.5491C54.3385 27.5491 54.3579 27.5537 54.3662 27.5625C54.3826 27.58 54.3908 27.5975 54.3908 27.6149C54.3908 27.6206 54.3854 27.6556 54.3745 27.72L54.1233 28.9335C54.1041 29.0298 54.0945 29.1204 54.0945 29.2053C54.0945 29.2665 54.1006 29.3176 54.1131 29.3586C54.1253 29.3993 54.1431 29.4237 54.1667 29.431C54.1898 29.4383 54.2055 29.4417 54.2138 29.4417C54.2687 29.4417 54.3352 29.39 54.4133 29.2864C54.4916 29.1828 54.5446 29.1311 54.5718 29.1311C54.5882 29.1313 54.6021 29.1369 54.613 29.1487ZM54.5389 26.6648C54.5389 26.6941 54.4855 26.7672 54.3784 26.8837C54.2714 27.0005 54.2029 27.0592 54.1726 27.0592C54.1506 27.0592 54.0987 26.9975 54.0165 26.8749C53.934 26.7524 53.8941 26.6794 53.897 26.6561C53.9079 26.5978 53.9628 26.516 54.0616 26.411C54.1604 26.306 54.226 26.2531 54.2591 26.2531C54.2838 26.2531 54.3368 26.3101 54.4177 26.424C54.4983 26.5377 54.5389 26.618 54.5389 26.6648Z" fill="black"/>
<path d="M56.8654 28.0013C56.8654 28.0686 56.8425 28.1276 56.7974 28.1786C56.752 28.2296 56.698 28.2551 56.6347 28.2551C56.5883 28.2551 56.5464 28.2429 56.5094 28.2183C56.4723 28.1936 56.4416 28.1588 56.4169 28.1152C56.3454 27.9869 56.2811 27.8987 56.2233 27.8502C56.1657 27.8022 56.1053 27.7779 56.0423 27.7779C55.8941 27.7779 55.7685 27.8692 55.6658 28.0514C55.5629 28.234 55.5114 28.4639 55.5114 28.7413C55.5114 28.9863 55.5642 29.1862 55.6699 29.341C55.7757 29.4956 55.9311 29.5731 56.137 29.5731C56.3205 29.5731 56.4812 29.481 56.6184 29.2972C56.6293 29.2823 56.6446 29.2716 56.6635 29.264C56.6827 29.2568 56.6993 29.2591 56.7128 29.2709C56.7322 29.2823 56.7418 29.3013 56.7418 29.3276C56.7418 29.3394 56.7377 29.3528 56.7296 29.3672C56.6472 29.5103 56.527 29.6305 56.3694 29.7284C56.2117 29.8262 56.0491 29.8753 55.8819 29.8753C55.6076 29.8753 55.3893 29.8022 55.2273 29.6562C55.0655 29.5104 54.9846 29.3045 54.9846 29.0389C54.9846 28.6535 55.0984 28.3223 55.3263 28.0449C55.5703 27.7472 55.8775 27.5985 56.2479 27.5985C56.459 27.5985 56.6197 27.6438 56.7296 27.734C56.8201 27.8104 56.8654 27.8994 56.8654 28.0013Z" fill="black"/>
<path d="M65.9718 26.9243C65.9718 26.9621 65.9679 26.9913 65.9596 27.0118C65.9513 27.0323 65.9321 27.0423 65.902 27.0423C65.8608 27.0423 65.8292 27.0107 65.8076 26.9468C65.7307 26.7381 65.6825 26.6221 65.6635 26.5989C65.6197 26.5499 65.5024 26.5099 65.3116 26.4794C65.1208 26.449 64.9241 26.4338 64.7213 26.4338C64.6003 26.4338 64.5016 26.4384 64.4248 26.4472C64.3481 26.456 64.2988 26.4719 64.277 26.4952C64.2355 26.5364 64.1972 26.6604 64.1616 26.8674C64.1259 27.0748 64.108 27.2396 64.108 27.3621V27.7606C64.108 27.793 64.115 27.8191 64.1285 27.8393C64.1424 27.8598 64.1629 27.8701 64.1904 27.8701H64.6882C64.7979 27.8701 64.9036 27.8335 65.0052 27.7604C65.0462 27.7315 65.101 27.6585 65.1696 27.5416C65.23 27.4396 65.2739 27.3882 65.3013 27.3882C65.3151 27.3882 65.3281 27.3965 65.3404 27.4126C65.3528 27.4286 65.3589 27.4484 65.3589 27.4716C65.3589 27.4833 65.3563 27.5066 65.3506 27.5416L65.256 28.496C65.256 28.5428 65.2534 28.5771 65.2479 28.5991C65.2422 28.6208 65.2257 28.6332 65.1986 28.6359C65.1574 28.6389 65.119 28.5747 65.0833 28.4433C65.0475 28.312 65.0052 28.2276 64.9557 28.1896C64.857 28.1165 64.7364 28.0799 64.5936 28.0799H64.2397C64.1712 28.0799 64.115 28.1123 64.0711 28.1766C64.0271 28.241 63.9948 28.3624 63.9743 28.5408C63.9538 28.7193 63.9436 28.9153 63.9436 29.1293V29.3179C63.9436 29.3587 63.9469 29.3933 63.9538 29.4211C63.9606 29.4489 63.9743 29.4774 63.9951 29.5067C64.0155 29.5359 64.0408 29.5591 64.0711 29.5767C64.082 29.5827 64.115 29.5971 64.1699 29.6208C64.1946 29.6322 64.2323 29.6425 64.2831 29.6512C64.3341 29.66 64.3694 29.6688 64.3901 29.6775C64.4106 29.6866 64.4252 29.6939 64.4335 29.6997C64.4556 29.7172 64.4665 29.7423 64.4665 29.7743C64.4665 29.8184 64.446 29.8481 64.4047 29.8645C64.3635 29.8805 64.3045 29.8884 64.2277 29.8884C64.1865 29.8884 64.1104 29.8827 63.9992 29.8708C63.8882 29.8591 63.8093 29.8533 63.7626 29.8533C63.7053 29.8533 63.6015 29.8563 63.4521 29.8621C63.3026 29.8677 63.2238 29.8708 63.2156 29.8708C63.0647 29.8708 62.9796 29.8564 62.9605 29.827C62.9522 29.8126 62.9482 29.7977 62.9482 29.7832C62.9482 29.7539 62.9646 29.7284 62.9975 29.7067C63.0304 29.6845 63.0764 29.664 63.1353 29.645C63.1944 29.6264 63.243 29.5685 63.2814 29.4722C63.3115 29.3964 63.3307 29.313 63.339 29.2226L63.6065 26.7356C63.6091 26.7181 63.6104 26.6949 63.6104 26.6656C63.6104 26.5986 63.5926 26.5447 63.557 26.5035C63.5213 26.4628 63.4526 26.4262 63.3512 26.3943C63.3019 26.3795 63.2524 26.365 63.2031 26.3502C63.1619 26.3326 63.1412 26.3124 63.1412 26.289C63.1412 26.2539 63.168 26.2322 63.2217 26.2234C63.2751 26.2147 63.332 26.2101 63.3924 26.2101C63.4637 26.2101 63.5694 26.2139 63.7092 26.2211C63.849 26.2282 63.9301 26.2321 63.9521 26.2321H65.3015C65.3923 26.2321 65.4806 26.2298 65.5671 26.2248C65.6535 26.2199 65.7381 26.2148 65.8203 26.2099C65.8887 26.2099 65.9312 26.2129 65.9478 26.2187C65.9642 26.2248 65.9725 26.2438 65.9725 26.2757V26.9243H65.9718Z" fill="black"/>
<path d="M67.3208 29.1051C67.3483 29.1165 67.362 29.1416 67.362 29.1792C67.362 29.2143 67.3511 29.258 67.3291 29.3106C67.3182 29.3398 67.2962 29.382 67.2635 29.4376C67.2086 29.5456 67.1248 29.6419 67.0123 29.7265C66.8863 29.8227 66.7655 29.871 66.6502 29.871C66.6063 29.871 66.5612 29.8623 66.5145 29.8447C66.4101 29.8009 66.3381 29.7435 66.2985 29.6716C66.2586 29.6005 66.2387 29.5107 66.2387 29.4025C66.2387 29.3557 66.2428 29.3016 66.2509 29.2404C66.2592 29.1792 66.2649 29.1327 66.2675 29.1003L66.5721 26.5695C66.5747 26.552 66.576 26.5273 66.576 26.4949C66.576 26.463 66.5712 26.4337 66.5618 26.4074C66.5523 26.3811 66.5363 26.3628 66.5145 26.3526C66.4925 26.3423 66.4513 26.3374 66.3911 26.3374C66.3582 26.3374 66.3336 26.3374 66.317 26.3374C66.2758 26.3374 66.245 26.334 66.2245 26.3267C66.2038 26.3195 66.1934 26.3028 66.1934 26.2768C66.1934 26.2159 66.2496 26.1756 66.3623 26.1554C66.4611 26.144 66.5446 26.1333 66.6133 26.123C66.682 26.1128 66.7491 26.1006 66.8148 26.0862C66.9356 26.0603 67.0123 26.0474 67.0452 26.0474C67.0673 26.0474 67.0808 26.0516 67.0864 26.0603C67.1165 26.1015 67.1277 26.1464 67.1194 26.1961L66.7901 29.223C66.7901 29.2694 66.7984 29.314 66.8148 29.3562C66.8313 29.3984 66.8601 29.4254 66.9013 29.4373C66.9752 29.4548 67.0583 29.4015 67.1503 29.2774C67.2421 29.1538 67.299 29.0963 67.3208 29.1051Z" fill="black"/>
<path d="M69.9709 29.2055C69.9984 29.2172 70.0121 29.2389 70.0121 29.2713C70.0121 29.3003 70.0026 29.3368 69.9834 29.3805C69.9808 29.3866 69.9603 29.4258 69.9217 29.499C69.8613 29.6101 69.7762 29.7003 69.6666 29.7703C69.5567 29.8403 69.4498 29.8756 69.3454 29.8756C69.2632 29.8756 69.1862 29.8266 69.1151 29.7287C69.0438 29.6309 69.0081 29.5266 69.0081 29.4155C68.8903 29.5585 68.7763 29.6651 68.6666 29.7351C68.5212 29.8287 68.369 29.8755 68.2098 29.8755C68.0289 29.8755 67.888 29.8009 67.7879 29.6521C67.6878 29.5034 67.6377 29.3165 67.6377 29.0915C67.6377 28.937 67.6706 28.7703 67.7365 28.5923C67.8023 28.4145 67.8928 28.2391 68.0081 28.0671C68.1178 27.918 68.2329 27.8056 68.3537 27.73C68.4935 27.6425 68.6457 27.5986 68.8105 27.5986C68.8378 27.5986 68.8626 27.5986 68.8844 27.5986C68.9065 27.5986 68.9407 27.6035 68.9874 27.6138C69.034 27.6241 69.0938 27.6496 69.1664 27.6903C69.239 27.7315 69.2933 27.7515 69.3288 27.7515C69.3591 27.7515 69.3901 27.742 69.4215 27.723C69.4529 27.704 69.4797 27.6755 69.5017 27.6374L69.6127 27.4836C69.6347 27.4544 69.6587 27.4296 69.6849 27.409C69.7108 27.3885 69.732 27.3844 69.7485 27.3957C69.7677 27.4074 69.7773 27.431 69.7773 27.4661C69.7747 27.4951 69.7734 27.5171 69.7734 27.5316L69.551 28.9031C69.5455 28.9321 69.5379 28.9765 69.5283 29.0367C69.5187 29.0964 69.5139 29.1539 69.5139 29.2095C69.5139 29.2799 69.5235 29.3382 69.5427 29.385C69.5619 29.4318 69.5948 29.4581 69.6415 29.4637C69.7047 29.4755 69.7684 29.4325 69.8329 29.3348C69.8972 29.237 69.9435 29.194 69.9709 29.2055ZM69.1768 28.0451C69.1768 27.8438 69.0807 27.7429 68.8888 27.7429C68.79 27.7429 68.698 27.778 68.613 27.848C68.5389 27.9092 68.4689 27.9991 68.4032 28.1174C68.3374 28.2356 68.2851 28.3648 68.2467 28.5048C68.2083 28.6447 68.1891 28.7909 68.1891 28.9428C68.1891 29.1415 68.2172 29.2857 68.2735 29.3762C68.3298 29.4669 68.4237 29.512 68.5554 29.512C68.7037 29.512 68.8118 29.4302 68.8805 29.2666C68.9601 29.074 69.0292 28.8655 69.0883 28.6405C69.1474 28.4159 69.1768 28.2175 69.1768 28.0451Z" fill="black"/>
<path d="M72.4903 27.6158C72.5478 27.6858 72.5766 27.7923 72.5766 27.9351C72.5766 28.1392 72.5217 28.3952 72.412 28.7042C72.3298 28.9402 72.2585 29.1062 72.1981 29.2025C72.0856 29.3977 71.9469 29.5632 71.7825 29.6987C71.6179 29.8343 71.4642 29.902 71.3216 29.902C71.2666 29.902 71.2187 29.8918 71.1774 29.8713C71.0623 29.8188 70.9827 29.6833 70.9387 29.4649C70.9058 29.302 70.8962 29.1867 70.9099 29.1197C70.7538 29.0527 70.655 28.9988 70.6136 28.958C70.4959 28.8415 70.4368 28.6582 70.4368 28.4074C70.4368 28.2179 70.5122 28.0322 70.6633 27.8503C70.814 27.668 70.9773 27.577 71.1528 27.577C71.3065 27.577 71.4044 27.6239 71.4469 27.717C71.4897 27.8099 71.5108 28.0154 71.5108 28.3328C71.5108 28.4291 71.5012 28.5744 71.482 28.7696C71.4629 28.9649 71.4533 29.1019 71.4533 29.1802C71.4533 29.2733 71.4622 29.3476 71.4801 29.4032C71.498 29.4583 71.5315 29.4919 71.5808 29.5036C71.7042 29.5356 71.8468 29.4256 72.0086 29.1736C72.1706 28.9218 72.2515 28.6763 72.2515 28.4372C72.2515 28.3356 72.2173 28.2105 72.1488 28.0616C72.1159 27.9889 72.0995 27.9189 72.0995 27.8519C72.0912 27.7561 72.1152 27.686 72.1715 27.6423C72.2275 27.5989 72.2929 27.5768 72.3669 27.5768C72.4242 27.5766 72.4656 27.59 72.4903 27.6158ZM70.9675 28.0672C70.9731 28.0497 70.9705 28.0349 70.9592 28.0234C70.9428 28.0059 70.9073 28.0093 70.8523 28.0341C70.7974 28.0592 70.7542 28.097 70.7226 28.1482C70.6912 28.1992 70.6666 28.2654 70.6487 28.3472C70.6308 28.4291 70.6221 28.499 70.6221 28.5573C70.6221 28.5923 70.6254 28.6384 70.6321 28.6955C70.6391 28.7522 70.6659 28.8069 70.7126 28.8595C70.7481 28.9007 70.7891 28.9207 70.836 28.9207C70.8633 28.9207 70.884 28.912 70.8977 28.8944C70.906 28.8857 70.9099 28.8698 70.9099 28.8464L70.9675 28.0672Z" fill="black"/>
<path d="M74.807 28.562C74.807 28.9269 74.7095 29.2379 74.5148 29.4947C74.3092 29.766 74.0432 29.9018 73.7166 29.9018C73.4506 29.9018 73.2347 29.8033 73.0686 29.6061C72.9027 29.4089 72.8196 29.1647 72.8196 28.8728C72.8196 28.5284 72.933 28.2297 73.1591 27.9774C73.3854 27.7247 73.659 27.5988 73.98 27.5988C74.2405 27.5988 74.4464 27.692 74.5975 27.8789C74.737 28.0539 74.807 28.2814 74.807 28.562ZM74.268 28.3036C74.268 28.1429 74.2488 28.0174 74.2105 27.9272C74.161 27.8104 74.0772 27.7517 73.9595 27.7517C73.8688 27.7517 73.7905 27.7776 73.7249 27.8285C73.659 27.8795 73.6056 27.9488 73.5644 28.0363C73.4986 28.1823 73.4504 28.3525 73.4203 28.5465C73.39 28.7406 73.3749 28.9412 73.3749 29.1486C73.3749 29.3412 73.4059 29.4862 73.4676 29.584C73.5293 29.6817 73.615 29.7309 73.7247 29.7309C73.8646 29.7309 73.9811 29.6373 74.0744 29.4504C74.1485 29.3017 74.1993 29.1345 74.2268 28.9492C74.2543 28.7641 74.268 28.5486 74.268 28.3036Z" fill="black"/>
<path d="M77.7939 29.1704C77.8211 29.1821 77.8348 29.2042 77.8348 29.2366C77.8348 29.2629 77.8268 29.2937 77.8102 29.3291C77.8045 29.3408 77.7856 29.3759 77.7526 29.4348C77.6896 29.5521 77.5882 29.6594 77.448 29.7564C77.3083 29.8531 77.1683 29.9017 77.0285 29.9017C76.9298 29.8926 76.8619 29.8545 76.8247 29.7872C76.7876 29.7198 76.7693 29.6319 76.7693 29.5234C76.7693 29.5029 76.7693 29.4808 76.7693 29.4576C76.7747 29.4283 76.7774 29.4062 76.7774 29.3913L76.8271 28.8243L76.6047 29.2314C76.5059 29.424 76.3823 29.5805 76.2344 29.6999C76.067 29.8342 75.8901 29.9016 75.7035 29.9016C75.5964 29.9016 75.5197 29.8589 75.4733 29.7745C75.4375 29.7102 75.4196 29.6241 75.4196 29.5161C75.4196 29.4667 75.4222 29.4221 75.4279 29.3826C75.4331 29.3433 75.4388 29.3102 75.4445 29.284L75.5842 28.4433C75.5897 28.4082 75.5973 28.3588 75.6069 28.2946C75.6165 28.2302 75.6211 28.1895 75.6211 28.172C75.6211 28.1195 75.615 28.0784 75.6028 28.0494C75.5903 28.0201 75.5664 28.0041 75.5306 28.0011C75.465 27.9923 75.4011 28.051 75.3394 28.1762C75.2777 28.3017 75.2277 28.3573 75.1892 28.3429C75.1591 28.3311 75.1438 28.3002 75.1438 28.2508C75.1438 28.1983 75.1591 28.1354 75.1892 28.0623C75.2112 28.0072 75.2384 27.9543 75.2714 27.9048C75.3372 27.7998 75.4283 27.71 75.5452 27.6354C75.6616 27.5613 75.768 27.524 75.864 27.524C75.8775 27.524 75.8984 27.527 75.9257 27.5328C76.0188 27.5591 76.0864 27.6203 76.1276 27.7166C76.1575 27.7866 76.1727 27.8684 76.1727 27.962C76.1727 28.0115 76.1699 28.0481 76.1644 28.0712L76.0286 28.9778C76.0231 29.0185 76.0177 29.0653 76.0123 29.1178C76.0066 29.1702 76.004 29.217 76.004 29.2579C76.004 29.3191 76.0103 29.3666 76.0225 29.4002C76.0347 29.4337 76.0574 29.4505 76.0905 29.4505C76.1976 29.4505 76.3236 29.3381 76.469 29.1136C76.628 28.8681 76.7719 28.5763 76.9012 28.2375C76.9311 28.1561 76.9668 28.0393 77.008 27.8875C77.0189 27.8406 77.0355 27.7751 77.0573 27.6903L77.078 27.6423C77.0918 27.616 77.1094 27.6028 77.1314 27.6028H77.5387C77.5499 27.6028 77.5579 27.6042 77.5636 27.6073C77.5688 27.613 77.5745 27.6188 77.5802 27.6249C77.5882 27.6363 77.5895 27.6583 77.5841 27.6904L77.3453 28.9778C77.3371 29.0303 77.3307 29.0782 77.3268 29.1224C77.3227 29.1662 77.3207 29.2026 77.3207 29.2316C77.3207 29.2989 77.3268 29.3515 77.339 29.3891C77.3515 29.4271 77.3754 29.4476 77.4112 29.4503C77.4768 29.4503 77.5496 29.4001 77.6292 29.2996C77.7086 29.1989 77.7635 29.156 77.7939 29.1704Z" fill="black"/>
<path d="M80.0535 27.8438L79.9711 28.1547C79.9602 28.2015 79.9382 28.2247 79.9055 28.2247C79.8915 28.2247 79.878 28.2201 79.8642 28.2113C79.8505 28.2025 79.8383 28.1911 79.8274 28.1762C79.7343 28.0568 79.6848 27.9939 79.6793 27.9883C79.6464 27.9559 79.6176 27.94 79.5928 27.94C79.5132 27.94 79.438 28.0306 79.3667 28.2113C79.3091 28.3574 79.264 28.5355 79.2308 28.7456L79.0682 29.7875C79.0682 29.8088 79.0621 29.829 79.0499 29.8477C79.0374 29.866 79.0246 29.8755 79.0108 29.8755H78.5844C78.5734 29.8755 78.5652 29.874 78.5597 29.8709C78.5514 29.8621 78.5462 29.8565 78.5434 29.8534C78.5405 29.8477 78.5392 29.8373 78.5392 29.8226C78.5392 29.8051 78.5392 29.7936 78.5392 29.7875L78.716 28.5921C78.7243 28.5397 78.7283 28.4844 78.7283 28.4259C78.7283 28.3296 78.7167 28.2486 78.6934 28.1831C78.67 28.1173 78.631 28.0799 78.5761 28.0712C78.5131 28.0597 78.4487 28.1309 78.3827 28.2857C78.3524 28.3557 78.3223 28.3835 78.2922 28.3691C78.251 28.3486 78.2305 28.3106 78.2305 28.255C78.2305 28.2143 78.2398 28.1682 78.2588 28.1173C78.278 28.0663 78.2983 28.0187 78.3201 27.9749C78.3827 27.8554 78.4601 27.7603 78.5523 27.6902C78.6443 27.6201 78.7411 27.5851 78.8416 27.5851C78.9097 27.5851 78.9624 27.6217 79.0006 27.6948C79.0278 27.7472 79.0507 27.8216 79.0697 27.9178L79.1194 28.1896L79.2149 28.0321C79.2649 27.9473 79.3438 27.8597 79.4515 27.7691C79.6009 27.6465 79.7434 27.5853 79.8791 27.5853C79.948 27.5853 79.9964 27.6013 80.0243 27.6336C80.0518 27.6655 80.0657 27.7063 80.0657 27.7562C80.0657 27.7883 80.0616 27.8175 80.0535 27.8438Z" fill="black"/>
<path d="M81.8184 27.8392C81.8321 27.8685 81.8389 27.8994 81.8389 27.9314C81.8389 27.9899 81.8203 28.0418 81.7833 28.0867C81.7462 28.132 81.6991 28.1547 81.6415 28.1547C81.5975 28.1547 81.5508 28.1372 81.5013 28.1022C81.4741 28.0817 81.4383 28.0242 81.3945 27.9291C81.3505 27.8343 81.306 27.7777 81.2606 27.7587C81.2155 27.7397 81.1736 27.7302 81.1353 27.7302C81.0694 27.7302 81.0151 27.7499 80.9726 27.7892C80.9301 27.8287 80.9089 27.8923 80.9089 27.9803C80.9089 28.0095 80.9115 28.0397 80.9172 28.07C80.9224 28.1008 80.939 28.1324 80.9665 28.1644C80.9857 28.188 81.0199 28.2184 81.0692 28.2565L81.4191 28.5461C81.463 28.5815 81.5007 28.615 81.5323 28.647C81.5637 28.6794 81.5918 28.7174 81.6165 28.7611C81.6579 28.8311 81.6899 28.9054 81.7133 28.9826C81.7364 29.0602 81.7484 29.1341 81.7484 29.2042C81.7484 29.2921 81.7325 29.3739 81.7011 29.45C81.6697 29.526 81.6195 29.596 81.5506 29.6604C81.4575 29.7513 81.3607 29.8141 81.2606 29.8491C81.1605 29.8841 81.0406 29.9019 80.9006 29.9019C80.7197 29.9019 80.5646 29.8666 80.4356 29.7966C80.2792 29.7121 80.2012 29.5911 80.2012 29.4332C80.2064 29.3574 80.231 29.3003 80.2751 29.2627C80.3189 29.2247 80.3697 29.2057 80.4273 29.2057C80.4986 29.2057 80.5494 29.2293 80.5797 29.2756C80.596 29.302 80.6248 29.3749 80.666 29.4948C80.7264 29.6699 80.8156 29.7574 80.9336 29.7574C81.0515 29.7574 81.144 29.7243 81.2114 29.6584C81.2785 29.5926 81.3123 29.5115 81.3123 29.4152C81.3123 29.3479 81.2944 29.2782 81.2587 29.2066C81.2229 29.1349 81.1708 29.07 81.1023 29.0113L80.7072 28.6647C80.5537 28.5303 80.4768 28.378 80.4768 28.2083C80.4768 28.074 80.5247 27.9504 80.6209 27.8376C80.7168 27.725 80.8403 27.6496 80.9911 27.6116C81.0842 27.5884 81.1736 27.5765 81.2584 27.5765C81.3873 27.5765 81.5027 27.5994 81.604 27.6443C81.7059 27.6898 81.7772 27.7548 81.8184 27.8392Z" fill="black"/>
</g>
</mask>
<g mask="url(#mask0_1382_13064)">
<rect x="1.35474" y="0.614288" width="105.101" height="38.7714" fill="#6366F1"/>
</g>
<defs>
<clipPath id="clip0_1382_13064">
<rect width="90" height="23" fill="white" transform="translate(8 8.5)"/>
</clipPath>
</defs>
</svg>
