<svg width="24" height="24" viewBox="0 0 24 24" fill="none" xmlns="http://www.w3.org/2000/svg">
<path d="M7.00049 3.99998H13.0005C13.5528 3.99998 14.0005 4.4477 14.0005 4.99998C14.0005 5.51282 13.6144 5.93549 13.1171 5.99326L13.0005 5.99998H7.00049C6.48765 5.99998 6.06498 6.38602 6.00722 6.88336L6.00049 6.99998V17C6.00049 17.5128 6.38653 17.9355 6.88387 17.9933L7.00049 18H17.0005C17.5133 18 17.936 17.6139 17.9938 17.1166L18.0005 17V11C18.0005 10.4477 18.4482 9.99998 19.0005 9.99998C19.5133 9.99998 19.936 10.386 19.9938 10.8834L20.0005 11V17C20.0005 18.5977 18.7516 19.9036 17.1768 19.9949L17.0005 20H7.00049C5.40281 20 4.09683 18.7511 4.00558 17.1763L4.00049 17V6.99998C4.00049 5.4023 5.24941 4.09632 6.82422 4.00508L7.00049 3.99998H13.0005H7.00049ZM21.127 3.12346C21.5175 3.51398 21.5175 4.14715 21.127 4.53767L12.6417 13.023L10.874 13.3765L11.2275 11.6087L19.7128 3.12346C20.1033 2.73294 20.7365 2.73294 21.127 3.12346Z" fill="#3935D8"/>
</svg>
