<svg width="116" height="24" viewBox="0 0 116 24" fill="none" xmlns="http://www.w3.org/2000/svg">
<path d="M14.1393 10.3076C17.6368 11.508 20.3423 7.48167 18.2736 4.41677C16.4741 1.75086 13.4399 0 10 0C4.47715 0 0 4.51322 0 10.0806C0 16.6072 7.40696 22.353 9.47147 23.8277C9.79301 24.0574 10.207 24.0574 10.5285 23.8277C11.6543 23.0236 14.3686 20.9494 16.6043 18.1711C18.3252 16.0326 17.3672 13.0571 15.0178 11.6376C13.47 10.7024 11.1366 10.8344 10.4415 12.5038C10.0992 13.3258 10.1063 14.2352 11 15.1289C13.0242 17.1531 7 17.8256 7 13.1047C7 9.25 11.1862 8.81566 12.625 9.625C13.1422 9.91593 13.649 10.1392 14.1393 10.3076Z" fill="#3935D8"/>
<path d="M72.5956 0H76.0946V18.4017H72.5956V0Z" fill="#3935D8"/>
<path d="M96.3601 18.8164C94.9606 18.8164 93.7511 18.5486 92.7316 18.013C91.7122 17.46 90.9346 16.6739 90.399 15.6544C89.8634 14.6177 89.5956 13.3996 89.5956 12C89.5956 10.6004 89.872 9.37365 90.4249 8.31965C90.9951 7.26566 91.7899 6.45356 92.8094 5.88337C93.8288 5.31317 95.0124 5.02808 96.3601 5.02808C97.5524 5.02808 98.6063 5.24406 99.5221 5.67602C100.438 6.09071 101.172 6.7041 101.725 7.5162C102.295 8.31101 102.641 9.2527 102.762 10.3413L98.9778 10.6004C98.8051 9.68466 98.5027 9.01944 98.0707 8.60475C97.656 8.17278 97.0858 7.9568 96.3601 7.9568C95.7208 7.9568 95.1852 8.11231 94.7532 8.42332C94.3213 8.71706 93.993 9.16631 93.7683 9.77106C93.5437 10.3758 93.4314 11.1101 93.4314 11.9741C93.4314 12.8207 93.5437 13.5378 93.7683 14.1253C93.993 14.6955 94.3213 15.1361 94.7532 15.4471C95.2025 15.7408 95.7381 15.8877 96.3601 15.8877C97.1031 15.8877 97.6819 15.689 98.0966 15.2916C98.5113 14.8942 98.8051 14.2635 98.9778 13.3996L102.762 13.6587C102.641 14.73 102.304 15.6544 101.751 16.432C101.198 17.2095 100.464 17.8056 99.548 18.2203C98.6323 18.6177 97.5696 18.8164 96.3601 18.8164Z" fill="#3935D8"/>
<path d="M109.685 18.8164C108.337 18.8164 107.137 18.5313 106.083 17.9611C105.029 17.3736 104.208 16.5616 103.62 15.5248C103.05 14.4708 102.765 13.27 102.765 11.9222C102.765 10.6091 103.042 9.43412 103.594 8.39741C104.165 7.34341 104.942 6.52268 105.927 5.9352C106.912 5.33045 108.026 5.02808 109.271 5.02808C110.515 5.02808 111.629 5.33045 112.614 5.9352C113.599 6.52268 114.368 7.34341 114.921 8.39741C115.474 9.4514 115.75 10.6436 115.75 11.9741V12.959H106.368C106.368 13.5292 106.497 14.0389 106.756 14.4881C107.033 14.9201 107.413 15.2657 107.897 15.5248C108.381 15.7667 108.925 15.8877 109.53 15.8877C110.169 15.8877 110.731 15.7495 111.214 15.473C111.698 15.1965 112.035 14.8164 112.225 14.3326L115.75 14.5918C115.56 15.8531 114.903 16.8726 113.78 17.6501C112.657 18.4276 111.292 18.8164 109.685 18.8164ZM112.147 10.419C112.147 9.95248 112.026 9.52916 111.785 9.14903C111.543 8.7689 111.197 8.47516 110.748 8.26782C110.316 8.06047 109.823 7.9568 109.271 7.9568C108.718 7.9568 108.216 8.06911 107.767 8.29374C107.335 8.50108 106.99 8.79481 106.731 9.17494C106.489 9.5378 106.368 9.95248 106.368 10.419H112.147Z" fill="#3935D8"/>
<path fill-rule="evenodd" clip-rule="evenodd" d="M28.6609 24C27.4687 24 26.3974 23.8186 25.4471 23.4557C24.4968 23.0929 23.7451 22.5918 23.1922 21.9525C22.6566 21.3305 22.3888 20.622 22.3888 19.8272L26.2246 19.568C26.311 19.9136 26.4579 20.1901 26.6652 20.3974C26.8726 20.622 27.1404 20.7862 27.4687 20.8898C27.797 21.0108 28.1944 21.0713 28.6609 21.0713C29.7149 21.0713 30.5356 20.7948 31.1231 20.2419C31.7106 19.689 32.0043 18.9028 32.0043 17.8834V16.0999C31.6082 16.9537 31.0466 17.6173 30.3197 18.0907C29.594 18.5745 28.7387 18.8164 27.7538 18.8164C26.6479 18.8164 25.6544 18.5227 24.7732 17.9352C23.9093 17.3477 23.2268 16.527 22.7257 15.473C22.2419 14.419 22 13.2354 22 11.9222C22 10.5745 22.2419 9.38229 22.7257 8.34557C23.2095 7.29157 23.8834 6.47948 24.7473 5.90929C25.6285 5.32181 26.6307 5.02808 27.7538 5.02808C28.7387 5.02808 29.594 5.26998 30.3197 5.75378C31.0466 6.22716 31.6082 6.89078 32.0043 7.74463V5.44276H35.5032V17.1058C35.5032 18.5745 35.2354 19.8186 34.6998 20.838C34.1641 21.8747 33.3866 22.6609 32.3672 23.1965C31.3477 23.7322 30.1123 24 28.6609 24ZM30.4752 15.3952C29.9914 15.7235 29.4298 15.8877 28.7905 15.8877C28.1512 15.8877 27.5896 15.7235 27.1058 15.3952C26.622 15.067 26.2419 14.6004 25.9654 13.9957C25.7063 13.3909 25.5767 12.6998 25.5767 11.9222C25.5767 11.1447 25.7063 10.4536 25.9654 9.84881C26.2419 9.24406 26.622 8.77754 27.1058 8.44924C27.5896 8.12095 28.1512 7.9568 28.7905 7.9568C29.4298 7.9568 29.9914 8.12095 30.4752 8.44924C30.959 8.77754 31.3305 9.24406 31.5896 9.84881C31.8661 10.4536 32.0043 11.1447 32.0043 11.9222C32.0043 12.6998 31.8661 13.3909 31.5896 13.9957C31.3305 14.6004 30.959 15.067 30.4752 15.3952Z" fill="#3935D8"/>
<path fill-rule="evenodd" clip-rule="evenodd" d="M42.9502 18.8164C41.6025 18.8164 40.4016 18.5313 39.3476 17.9611C38.2936 17.3736 37.4729 16.5616 36.8854 15.5248C36.3152 14.4708 36.0301 13.27 36.0301 11.9222C36.0301 10.6091 36.3066 9.43412 36.8595 8.39741C37.4297 7.34341 38.2072 6.52268 39.1921 5.9352C40.177 5.33045 41.2914 5.02808 42.5355 5.02808C43.7796 5.02808 44.894 5.33045 45.8789 5.9352C46.6861 6.41669 47.3482 7.05488 47.8653 7.84975V5.44276H50.6644V1.26998H54.1633V5.44276H58.051V8.37149H54.1633V13.9179C54.1633 14.4363 54.2929 14.825 54.5521 15.0842C54.8113 15.3434 55.2001 15.473 55.7184 15.473H58.051V18.4017H55.0705C52.1331 18.4017 50.6644 17.0194 50.6644 14.2549V8.37149H48.1719C48.733 9.43028 49.015 10.6327 49.015 11.9741V12.959H39.6327C39.6327 13.5292 39.7623 14.0389 40.0215 14.4881C40.2979 14.9201 40.6781 15.2657 41.1619 15.5248C41.6457 15.7667 42.1899 15.8877 42.7947 15.8877C43.434 15.8877 43.9955 15.7495 44.4793 15.473C44.9631 15.1965 45.3001 14.8164 45.4901 14.3326L49.015 14.5918C48.8249 15.8531 48.1683 16.8726 47.0452 17.6501C45.9221 18.4276 44.5571 18.8164 42.9502 18.8164ZM45.0495 9.14903C45.2914 9.52916 45.4124 9.95248 45.4124 10.419H39.6327C39.6327 9.95248 39.7536 9.53779 39.9955 9.17494C40.2547 8.79481 40.6003 8.50108 41.0323 8.29373C41.4815 8.06911 41.9826 7.9568 42.5355 7.9568C43.0884 7.9568 43.5809 8.06047 44.0128 8.26782C44.4621 8.47516 44.8076 8.7689 45.0495 9.14903Z" fill="#3935D8"/>
<path fill-rule="evenodd" clip-rule="evenodd" d="M66.1884 18.8164C65.2036 18.8164 64.3396 18.5745 63.5966 18.0907C62.9007 17.6268 62.3478 16.9801 61.9379 16.1507V23.5853H58.439V5.44276H61.9379V7.69382C62.3478 6.86441 62.9007 6.21773 63.5966 5.75378C64.3396 5.26998 65.2036 5.02808 66.1884 5.02808C67.2943 5.02808 68.2792 5.32181 69.1431 5.90929C70.0243 6.49676 70.7068 7.31749 71.1906 8.37149C71.6917 9.40821 71.9422 10.5918 71.9422 11.9222C71.9422 13.2527 71.6917 14.4449 71.1906 15.4989C70.7068 16.5356 70.0243 17.3477 69.1431 17.9352C68.2792 18.5227 67.2943 18.8164 66.1884 18.8164ZM66.8364 15.3952C66.3526 15.7235 65.791 15.8877 65.1517 15.8877C64.5124 15.8877 63.9509 15.7235 63.4671 15.3952C62.9833 15.067 62.6031 14.6004 62.3267 13.9957C62.0675 13.3909 61.9379 12.6998 61.9379 11.9222C61.9379 11.1447 62.0675 10.4536 62.3267 9.84881C62.6031 9.24406 62.9833 8.77754 63.4671 8.44924C63.9509 8.12095 64.5124 7.9568 65.1517 7.9568C65.791 7.9568 66.3526 8.12095 66.8364 8.44924C67.3202 8.77754 67.6917 9.24406 67.9509 9.84881C68.2273 10.4536 68.3655 11.1447 68.3655 11.9222C68.3655 12.6998 68.2273 13.3909 67.9509 13.9957C67.6917 14.6004 67.3202 15.067 66.8364 15.3952Z" fill="#3935D8"/>
<path fill-rule="evenodd" clip-rule="evenodd" d="M81.5245 18.8164C80.6606 18.8164 79.8658 18.6436 79.1401 18.2981C78.4317 17.9352 77.8701 17.4514 77.4554 16.8466C77.058 16.2246 76.8593 15.5421 76.8593 14.7991C76.8593 13.5896 77.3604 12.6393 78.3626 11.9482C79.3647 11.2397 80.7988 10.8337 82.6649 10.73H82.8464C83.8485 10.6609 84.5656 10.5054 84.9975 10.2635C85.4468 10.0043 85.6196 9.65011 85.5159 9.20086C85.4295 8.80345 85.1876 8.50108 84.7902 8.29374C84.3928 8.06911 83.8658 7.9568 83.2092 7.9568C82.4144 7.9568 81.7924 8.14687 81.3431 8.527C80.9112 8.88985 80.6952 9.39957 80.6952 10.0562L77.2222 9.79698C77.2222 8.86393 77.49 8.03456 78.0256 7.30885C78.5613 6.58315 79.3129 6.0216 80.2805 5.62419C81.2654 5.22678 82.3885 5.02808 83.6498 5.02808C84.8248 5.02808 85.8183 5.21814 86.6304 5.59827C87.4425 5.96112 88.0472 6.51404 88.4446 7.25702C88.8593 7.98272 89.0667 8.88121 89.0667 9.95248V18.4017H85.5677V15.7521C85.4962 15.9999 85.4098 16.2352 85.3086 16.4579C84.963 17.2181 84.4706 17.8056 83.8312 18.2203C83.1919 18.6177 82.423 18.8164 81.5245 18.8164ZM83.8831 15.3952C83.3647 15.7235 82.76 15.8877 82.0688 15.8877C81.6196 15.8877 81.2308 15.7754 80.9025 15.5508C80.5915 15.3261 80.436 15.0065 80.436 14.5918C80.436 14.0389 80.6693 13.6674 81.1358 13.4773C81.6023 13.27 82.2762 13.1145 83.1574 13.0108L83.4684 12.959C84.3669 12.8553 85.0667 12.5097 85.5677 11.9222V12.1037C85.5677 12.8121 85.4209 13.46 85.1271 14.0475C84.8334 14.6177 84.4187 15.067 83.8831 15.3952Z" fill="#3935D8"/>
</svg>
