<svg width="40" height="24" viewBox="0 0 40 24" fill="none" xmlns="http://www.w3.org/2000/svg">
<g id="stripe-logo">
<path id="Vector" fill-rule="evenodd" clip-rule="evenodd" d="M39.5394 14.2278H34.331C34.4538 15.475 35.3649 15.8756 36.3988 15.8756C37.4586 15.8756 38.3116 15.6365 39.0159 15.2617V17.4071C38.1221 17.9214 37.0993 18.1681 36.0693 18.1179C33.478 18.1179 31.6557 16.5024 31.6557 13.2843C31.6557 10.5767 33.2001 8.42488 35.7268 8.42488C38.2599 8.42488 39.5781 10.5444 39.5781 13.2714C39.5781 13.5299 39.5523 14.0856 39.5394 14.2278ZM35.7139 10.5961C35.0483 10.5961 34.3116 11.0679 34.3116 12.2633H37.0579C37.0579 11.0679 36.3665 10.5961 35.7139 10.5961ZM27.4619 18.1179C26.5314 18.1179 25.9627 17.7302 25.5879 17.4459L25.575 20.4378L22.9126 21V8.59935H25.3423L25.394 9.25848C25.9576 8.72393 26.7045 8.42562 27.4813 8.42488C29.3552 8.42488 31.1129 10.105 31.1129 13.2068C31.1129 16.5864 29.3682 18.1179 27.4619 18.1179ZM26.848 10.7835C26.2341 10.7835 25.8528 11.0032 25.575 11.3069L25.5879 15.2617C25.8464 15.546 26.2212 15.7658 26.848 15.7658C27.8302 15.7658 28.4893 14.6995 28.4893 13.2649C28.4893 11.8756 27.8173 10.7835 26.848 10.7835ZM19.2487 8.59935H21.9175V17.9305H19.2487V8.59935ZM19.2487 5.5622L21.9175 5V7.17124L19.2487 7.7399V5.56866V5.5622ZM16.4571 11.6042V17.9305H13.7948V8.59935H16.1857L16.2632 9.38772C16.9094 8.24394 18.2471 8.47658 18.6025 8.59935V11.0485C18.2665 10.9386 17.1227 10.7706 16.4571 11.6042ZM10.9321 14.6543C10.9321 16.2246 12.6122 15.7399 12.9482 15.5977V17.769C12.5928 17.9628 11.9531 18.1179 11.0807 18.1179C10.7171 18.1285 10.3552 18.0651 10.0169 17.9314C9.67861 17.7977 9.37106 17.5966 9.11294 17.3403C8.85483 17.084 8.65156 16.7779 8.51549 16.4405C8.37942 16.1032 8.3134 15.7417 8.32144 15.378L8.32791 6.86753L10.9256 6.31179V8.59935H12.9547V10.8805H10.9321V14.6607V14.6543ZM7.75925 15.1066C7.75925 17.0258 6.26653 18.1179 4.05652 18.1179C3.06481 18.1172 2.08384 17.9126 1.17447 17.517V14.9774C2.06623 15.462 3.17769 15.8239 4.05652 15.8239C4.65103 15.8239 5.04521 15.6688 5.04521 15.1777C5.04521 13.8982 1 14.3764 1 11.4297C1 9.54927 2.47334 8.42488 4.63164 8.42488C5.51047 8.42488 6.38931 8.55412 7.2746 8.90953V11.4168C6.45648 10.9862 5.54947 10.7517 4.62518 10.7318C4.06945 10.7318 3.69465 10.8934 3.69465 11.3134C3.69465 12.5089 7.75925 11.9402 7.75925 15.1131V15.1066Z" fill="#635BFF"/>
</g>
</svg>
